<?xml version="1.0" encoding="UTF-8" standalone="no"?>
<!DOCTYPE svg PUBLIC "-//W3C//DTD SVG 1.1//EN"
 "http://www.w3.org/Graphics/SVG/1.1/DTD/svg11.dtd">
<!-- Generated by graphviz version 2.38.0 (20140413.2041)
 -->
<!-- Title: G Pages: 1 -->
<svg width="286pt" height="231pt"
 viewBox="0.00 0.00 286.25 231.00" xmlns="http://www.w3.org/2000/svg" xmlns:xlink="http://www.w3.org/1999/xlink">
<g id="graph0" class="graph" transform="scale(1 1) rotate(0) translate(4 227)">
<title>G</title>
<polygon fill="white" stroke="none" points="-4,4 -4,-227 282.25,-227 282.25,4 -4,4"/>
<!-- map -->
<g id="node1" class="node"><title>map</title>
<polygon fill="none" stroke="black" points="114.236,-186.5 114.236,-222.5 168.236,-222.5 168.236,-186.5 114.236,-186.5"/>
<text text-anchor="middle" x="140.848" y="-211.1" font-family="Bitstream Vera Sans" font-size="8.00"> </text>
<polyline fill="none" stroke="black" points="114.236,-204.5 167.459,-204.5 "/>
<text text-anchor="middle" x="140.848" y="-193.1" font-family="Bitstream Vera Sans" font-size="8.00"> </text>
</g>
<!-- map_register -->
<g id="node2" class="node"><title>map_register</title>
<polygon fill="none" stroke="#b64ff7" points="0,-77.5 0,-149.5 76.4727,-149.5 76.4727,-77.5 0,-77.5"/>
<text text-anchor="middle" x="38.2363" y="-139.1" font-family="Bitstream Vera Sans" font-size="8.00">register (action)</text>
<polyline fill="none" stroke="#b64ff7" points="0,-133.5 76.4727,-133.5 "/>
<text text-anchor="middle" x="38.2363" y="-123.1" font-family="Bitstream Vera Sans" font-size="8.00">Input</text>
<polyline fill="none" stroke="#b64ff7" points="0,-117.5 76.4727,-117.5 "/>
<text text-anchor="start" x="8" y="-107.1" font-family="Bitstream Vera Sans" font-size="8.00"> &#160;deviceId : string</text>
<text text-anchor="start" x="8" y="-99.1" font-family="Bitstream Vera Sans" font-size="8.00"> &#160;address : string</text>
<polyline fill="none" stroke="#b64ff7" points="0,-93.5 76.4727,-93.5 "/>
<text text-anchor="middle" x="38.2363" y="-83.1" font-family="Bitstream Vera Sans" font-size="8.00"> </text>
</g>
<!-- map&#45;&gt;map_register -->
<g id="edge1" class="edge"><title>map&#45;&gt;map_register</title>
<path fill="none" stroke="#b64ff7" stroke-dasharray="5,2" d="M121.377,-186.34C110.822,-177.219 97.3709,-165.597 84.3799,-154.372"/>
<polygon fill="#b64ff7" stroke="#b64ff7" points="86.6644,-151.72 76.8095,-147.83 82.0877,-157.017 86.6644,-151.72"/>
</g>
<!-- map_update -->
<g id="node3" class="node"><title>map_update</title>
<polygon fill="none" stroke="#4fb32e" points="94.543,-85.5 94.543,-141.5 187.93,-141.5 187.93,-85.5 94.543,-85.5"/>
<text text-anchor="middle" x="141.236" y="-131.1" font-family="Bitstream Vera Sans" font-size="8.00">update (notification)</text>
<polyline fill="none" stroke="#4fb32e" points="94.543,-125.5 187.93,-125.5 "/>
<text text-anchor="start" x="102.543" y="-115.1" font-family="Bitstream Vera Sans" font-size="8.00">deviceId : string</text>
<text text-anchor="start" x="102.543" y="-107.1" font-family="Bitstream Vera Sans" font-size="8.00">address : string</text>
<text text-anchor="start" x="102.543" y="-99.1" font-family="Bitstream Vera Sans" font-size="8.00">module[…] : </text>
<text text-anchor="start" x="102.543" y="-91.1" font-family="Bitstream Vera Sans" font-size="8.00">change : enumeration</text>
</g>
<!-- map&#45;&gt;map_update -->
<g id="edge2" class="edge"><title>map&#45;&gt;map_update</title>
<path fill="none" stroke="#4fb32e" stroke-dasharray="5,2" d="M141.236,-186.34C141.236,-176.573 141.236,-163.937 141.236,-151.992"/>
<polygon fill="#4fb32e" stroke="#4fb32e" points="144.736,-151.762 141.236,-141.762 137.736,-151.762 144.736,-151.762"/>
</g>
<!-- map_device -->
<g id="node4" class="node"><title>map_device</title>
<polygon fill="none" stroke="black" points="206.223,-93.5 206.223,-133.5 278.25,-133.5 278.25,-93.5 206.223,-93.5"/>
<text text-anchor="middle" x="242.236" y="-123.1" font-family="Bitstream Vera Sans" font-size="8.00">device[…]</text>
<polyline fill="none" stroke="black" points="206.223,-117.5 278.25,-117.5 "/>
<text text-anchor="start" x="214.223" y="-107.1" font-family="Bitstream Vera Sans" font-size="8.00">deviceId : string</text>
<text text-anchor="start" x="214.223" y="-99.1" font-family="Bitstream Vera Sans" font-size="8.00">address : string</text>
</g>
<!-- map&#45;&gt;map_device -->
<g id="edge3" class="edge"><title>map&#45;&gt;map_device</title>
<path fill="none" stroke="black" d="M160.71,-186.34C175.39,-173.404 195.781,-155.436 212.498,-140.705"/>
<polygon fill="black" stroke="black" points="215.179,-143.008 220.367,-133.771 210.551,-137.756 215.179,-143.008"/>
</g>
<!-- map_device_module -->
<g id="node5" class="node"><title>map_device_module</title>
<polygon fill="none" stroke="black" points="207.338,-0.5 207.338,-40.5 277.135,-40.5 277.135,-0.5 207.338,-0.5"/>
<text text-anchor="middle" x="242.236" y="-30.1" font-family="Bitstream Vera Sans" font-size="8.00">module[…]</text>
<polyline fill="none" stroke="black" points="207.338,-24.5 277.135,-24.5 "/>
<text text-anchor="start" x="215.338" y="-14.1" font-family="Bitstream Vera Sans" font-size="8.00">name : string</text>
<text text-anchor="start" x="215.338" y="-6.1" font-family="Bitstream Vera Sans" font-size="8.00">revision : string</text>
</g>
<!-- map_device&#45;&gt;map_device_module -->
<g id="edge4" class="edge"><title>map_device&#45;&gt;map_device_module</title>
<path fill="none" stroke="black" d="M242.236,-93.2012C242.236,-80.8951 242.236,-64.7099 242.236,-50.8316"/>
<polygon fill="black" stroke="black" points="245.736,-50.7709 242.236,-40.7709 238.736,-50.771 245.736,-50.7709"/>
</g>
</g>
</svg>
