<?xml version="1.0" encoding="UTF-8" standalone="no"?>
<!DOCTYPE svg PUBLIC "-//W3C//DTD SVG 1.1//EN"
 "http://www.w3.org/Graphics/SVG/1.1/DTD/svg11.dtd">
<!-- Generated by graphviz version 2.38.0 (20140413.2041)
 -->
<!-- Title: G Pages: 1 -->
<svg width="1058pt" height="684pt"
 viewBox="0.00 0.00 1057.86 684.00" xmlns="http://www.w3.org/2000/svg" xmlns:xlink="http://www.w3.org/1999/xlink">
<g id="graph0" class="graph" transform="scale(1 1) rotate(0) translate(4 680)">
<title>G</title>
<polygon fill="white" stroke="none" points="-4,4 -4,-680 1053.86,-680 1053.86,4 -4,4"/>
<!-- yang -->
<g id="node1" class="node"><title>yang</title>
<polygon fill="none" stroke="black" points="165.459,-639.5 165.459,-675.5 219.459,-675.5 219.459,-639.5 165.459,-639.5"/>
<text text-anchor="middle" x="192.07" y="-664.1" font-family="Bitstream Vera Sans" font-size="8.00"> </text>
<polyline fill="none" stroke="black" points="165.459,-657.5 218.682,-657.5 "/>
<text text-anchor="middle" x="192.07" y="-646.1" font-family="Bitstream Vera Sans" font-size="8.00"> </text>
</g>
<!-- yang_module -->
<g id="node2" class="node"><title>yang_module</title>
<polygon fill="none" stroke="black" points="150.664,-546.5 150.664,-602.5 234.254,-602.5 234.254,-546.5 150.664,-546.5"/>
<text text-anchor="middle" x="192.459" y="-592.1" font-family="Bitstream Vera Sans" font-size="8.00">module</text>
<polyline fill="none" stroke="black" points="150.664,-586.5 234.254,-586.5 "/>
<text text-anchor="start" x="158.664" y="-576.1" font-family="Bitstream Vera Sans" font-size="8.00">ident : string</text>
<text text-anchor="start" x="158.664" y="-568.1" font-family="Bitstream Vera Sans" font-size="8.00">description : string</text>
<text text-anchor="start" x="158.664" y="-560.1" font-family="Bitstream Vera Sans" font-size="8.00">namespace : string</text>
<text text-anchor="start" x="158.664" y="-552.1" font-family="Bitstream Vera Sans" font-size="8.00">prefix : string</text>
</g>
<!-- yang&#45;&gt;yang_module -->
<g id="edge1" class="edge"><title>yang&#45;&gt;yang_module</title>
<path fill="none" stroke="black" d="M192.459,-639.322C192.459,-631.562 192.459,-622.068 192.459,-612.8"/>
<polygon fill="black" stroke="black" points="195.959,-612.535 192.459,-602.535 188.959,-612.535 195.959,-612.535"/>
</g>
<!-- yang_module_revision -->
<g id="node3" class="node"><title>yang_module_revision</title>
<polygon fill="none" stroke="black" points="0,-469.5 0,-509.5 80.918,-509.5 80.918,-469.5 0,-469.5"/>
<text text-anchor="middle" x="40.459" y="-499.1" font-family="Bitstream Vera Sans" font-size="8.00">revision</text>
<polyline fill="none" stroke="black" points="0,-493.5 80.918,-493.5 "/>
<text text-anchor="start" x="8" y="-483.1" font-family="Bitstream Vera Sans" font-size="8.00">rev&#45;date : string</text>
<text text-anchor="start" x="8" y="-475.1" font-family="Bitstream Vera Sans" font-size="8.00">description : string</text>
</g>
<!-- yang_module&#45;&gt;yang_module_revision -->
<g id="edge2" class="edge"><title>yang_module&#45;&gt;yang_module_revision</title>
<path fill="none" stroke="black" d="M150.522,-550.6C130.008,-539.398 105.319,-525.917 84.5267,-514.563"/>
<polygon fill="black" stroke="black" points="86.0326,-511.398 75.5784,-509.677 82.6778,-517.542 86.0326,-511.398"/>
</g>
<!-- yang_module_groupings -->
<g id="node4" class="node"><title>yang_module_groupings</title>
<polygon fill="none" stroke="black" points="210,-469.5 210,-509.5 290.918,-509.5 290.918,-469.5 210,-469.5"/>
<text text-anchor="middle" x="250.459" y="-499.1" font-family="Bitstream Vera Sans" font-size="8.00">groupings[因</text>
<polyline fill="none" stroke="black" points="210,-493.5 290.918,-493.5 "/>
<text text-anchor="start" x="218" y="-483.1" font-family="Bitstream Vera Sans" font-size="8.00">ident : string</text>
<text text-anchor="start" x="218" y="-475.1" font-family="Bitstream Vera Sans" font-size="8.00">description : string</text>
</g>
<!-- yang_module&#45;&gt;yang_module_groupings -->
<g id="edge3" class="edge"><title>yang_module&#45;&gt;yang_module_groupings</title>
<path fill="none" stroke="black" d="M211.45,-546.323C217.81,-537.222 224.901,-527.075 231.275,-517.954"/>
<polygon fill="black" stroke="black" points="234.259,-519.792 237.118,-509.591 228.522,-515.783 234.259,-519.792"/>
</g>
<!-- yang_module_groupings_typedefs -->
<g id="node5" class="node"><title>yang_module_groupings_typedefs</title>
<polygon fill="none" stroke="black" points="401,-117.5 401,-157.5 481.918,-157.5 481.918,-117.5 401,-117.5"/>
<text text-anchor="middle" x="441.459" y="-147.1" font-family="Bitstream Vera Sans" font-size="8.00">typedefs[因</text>
<polyline fill="none" stroke="black" points="401,-141.5 481.918,-141.5 "/>
<text text-anchor="start" x="409" y="-131.1" font-family="Bitstream Vera Sans" font-size="8.00">ident : string</text>
<text text-anchor="start" x="409" y="-123.1" font-family="Bitstream Vera Sans" font-size="8.00">description : string</text>
</g>
<!-- yang_module&#45;&gt;yang_module_groupings_typedefs -->
<g id="edge4" class="edge"><title>yang_module&#45;&gt;yang_module_groupings_typedefs</title>
<path fill="none" stroke="black" d="M167.484,-546.417C142.723,-516.655 108.459,-466.293 108.459,-415.5 108.459,-415.5 108.459,-415.5 108.459,-326.5 108.459,-198.358 297.756,-156.574 390.904,-143.77"/>
<polygon fill="black" stroke="black" points="391.501,-147.222 400.96,-142.45 390.589,-140.282 391.501,-147.222"/>
</g>
<!-- yang_module_groupings_definitions -->
<g id="node7" class="node"><title>yang_module_groupings_definitions</title>
<polygon fill="none" stroke="black" points="540.225,-396.5 540.225,-432.5 604.693,-432.5 604.693,-396.5 540.225,-396.5"/>
<text text-anchor="middle" x="572.459" y="-421.1" font-family="Bitstream Vera Sans" font-size="8.00">definitions[因</text>
<polyline fill="none" stroke="black" points="540.225,-414.5 604.693,-414.5 "/>
<text text-anchor="start" x="548.225" y="-403.1" font-family="Bitstream Vera Sans" font-size="8.00">ident : string</text>
</g>
<!-- yang_module&#45;&gt;yang_module_groupings_definitions -->
<g id="edge5" class="edge"><title>yang_module&#45;&gt;yang_module_groupings_definitions</title>
<path fill="none" stroke="black" d="M234.578,-555.988C307.812,-525.538 457.755,-463.193 530.722,-432.854"/>
<polygon fill="black" stroke="black" points="532.181,-436.038 540.071,-428.967 529.493,-429.574 532.181,-436.038"/>
</g>
<!-- yang_module_groupings&#45;&gt;yang_module_groupings -->
<g id="edge6" class="edge"><title>yang_module_groupings&#45;&gt;yang_module_groupings</title>
<path fill="none" stroke="black" d="M291.165,-503.184C301.325,-502.228 308.918,-497.666 308.918,-489.5 308.918,-484.269 305.802,-480.517 300.891,-478.244"/>
<polygon fill="black" stroke="black" points="301.715,-474.842 291.165,-475.816 300.02,-481.634 301.715,-474.842"/>
</g>
<!-- yang_module_groupings&#45;&gt;yang_module_groupings_typedefs -->
<g id="edge7" class="edge"><title>yang_module_groupings&#45;&gt;yang_module_groupings_typedefs</title>
<path fill="none" stroke="black" d="M223.385,-469.279C211.971,-459.706 199.68,-447.152 192.459,-433 164.512,-378.223 152.244,-348.559 182.459,-295 227.054,-215.95 329.41,-172.321 391.259,-152.306"/>
<polygon fill="black" stroke="black" points="392.336,-155.636 400.823,-149.294 390.234,-148.96 392.336,-155.636"/>
</g>
<!-- yang_module_groupings&#45;&gt;yang_module_groupings_definitions -->
<g id="edge8" class="edge"><title>yang_module_groupings&#45;&gt;yang_module_groupings_definitions</title>
<path fill="none" stroke="black" d="M291.241,-479.254C352.477,-465.372 467.623,-439.267 529.89,-425.151"/>
<polygon fill="black" stroke="black" points="530.801,-428.533 539.779,-422.909 529.253,-421.706 530.801,-428.533"/>
</g>
<!-- yang_module_groupings_typedefs_type -->
<g id="node6" class="node"><title>yang_module_groupings_typedefs_type</title>
<polygon fill="none" stroke="black" points="694.885,-0.5 694.885,-72.5 786.033,-72.5 786.033,-0.5 694.885,-0.5"/>
<text text-anchor="middle" x="740.459" y="-62.1" font-family="Bitstream Vera Sans" font-size="8.00">type</text>
<polyline fill="none" stroke="black" points="694.885,-56.5 786.033,-56.5 "/>
<text text-anchor="start" x="702.885" y="-46.1" font-family="Bitstream Vera Sans" font-size="8.00">ident : string</text>
<text text-anchor="start" x="702.885" y="-38.1" font-family="Bitstream Vera Sans" font-size="8.00">range : string</text>
<text text-anchor="start" x="702.885" y="-30.1" font-family="Bitstream Vera Sans" font-size="8.00">enumeration : string[]</text>
<text text-anchor="start" x="702.885" y="-22.1" font-family="Bitstream Vera Sans" font-size="8.00">path : string</text>
<text text-anchor="start" x="702.885" y="-14.1" font-family="Bitstream Vera Sans" font-size="8.00">minLength : int32</text>
<text text-anchor="start" x="702.885" y="-6.1" font-family="Bitstream Vera Sans" font-size="8.00">maxLength : int32</text>
</g>
<!-- yang_module_groupings_typedefs&#45;&gt;yang_module_groupings_typedefs_type -->
<g id="edge9" class="edge"><title>yang_module_groupings_typedefs&#45;&gt;yang_module_groupings_typedefs_type</title>
<path fill="none" stroke="black" d="M482.095,-123.045C534.655,-105.643 626.425,-75.2572 685.262,-55.7761"/>
<polygon fill="black" stroke="black" points="686.376,-59.0939 694.769,-52.628 684.176,-52.4487 686.376,-59.0939"/>
</g>
<!-- yang_module_groupings_definitions_container -->
<g id="node8" class="node"><title>yang_module_groupings_definitions_container</title>
<polygon fill="none" stroke="black" points="455.99,-299.5 455.99,-355.5 544.928,-355.5 544.928,-299.5 455.99,-299.5"/>
<text text-anchor="middle" x="500.459" y="-345.1" font-family="Bitstream Vera Sans" font-size="8.00">container</text>
<polyline fill="none" stroke="black" points="455.99,-339.5 544.928,-339.5 "/>
<text text-anchor="start" x="463.99" y="-329.1" font-family="Bitstream Vera Sans" font-size="8.00">ident : string</text>
<text text-anchor="start" x="463.99" y="-321.1" font-family="Bitstream Vera Sans" font-size="8.00">description : string</text>
<text text-anchor="start" x="463.99" y="-313.1" font-family="Bitstream Vera Sans" font-size="8.00">config : boolean</text>
<text text-anchor="start" x="463.99" y="-305.1" font-family="Bitstream Vera Sans" font-size="8.00">mandatory : boolean</text>
</g>
<!-- yang_module_groupings_definitions&#45;&gt;yang_module_groupings_definitions_container -->
<g id="edge10" class="edge"><title>yang_module_groupings_definitions&#45;&gt;yang_module_groupings_definitions_container</title>
<path fill="none" stroke="black" d="M552.34,-396.299C543.386,-386.93 532.895,-374.983 523.644,-363.736"/>
<polygon fill="black" stroke="black" points="526.173,-361.296 517.166,-355.716 520.727,-365.695 526.173,-361.296"/>
</g>
<!-- yang_module_groupings_definitions_list -->
<g id="node9" class="node"><title>yang_module_groupings_definitions_list</title>
<polygon fill="none" stroke="black" points="249.99,-295.5 249.99,-359.5 338.928,-359.5 338.928,-295.5 249.99,-295.5"/>
<text text-anchor="middle" x="294.459" y="-349.1" font-family="Bitstream Vera Sans" font-size="8.00">list</text>
<polyline fill="none" stroke="black" points="249.99,-343.5 338.928,-343.5 "/>
<text text-anchor="start" x="257.99" y="-333.1" font-family="Bitstream Vera Sans" font-size="8.00">key : string[]</text>
<text text-anchor="start" x="257.99" y="-325.1" font-family="Bitstream Vera Sans" font-size="8.00">ident : string</text>
<text text-anchor="start" x="257.99" y="-317.1" font-family="Bitstream Vera Sans" font-size="8.00">description : string</text>
<text text-anchor="start" x="257.99" y="-309.1" font-family="Bitstream Vera Sans" font-size="8.00">config : boolean</text>
<text text-anchor="start" x="257.99" y="-301.1" font-family="Bitstream Vera Sans" font-size="8.00">mandatory : boolean</text>
</g>
<!-- yang_module_groupings_definitions&#45;&gt;yang_module_groupings_definitions_list -->
<g id="edge11" class="edge"><title>yang_module_groupings_definitions&#45;&gt;yang_module_groupings_definitions_list</title>
<path fill="none" stroke="black" d="M540.192,-409.735C496.128,-403.418 415.587,-388.838 347.734,-363.199"/>
<polygon fill="black" stroke="black" points="348.837,-359.873 338.248,-359.508 346.298,-366.396 348.837,-359.873"/>
</g>
<!-- yang_module_groupings_definitions_leaf -->
<g id="node10" class="node"><title>yang_module_groupings_definitions_leaf</title>
<polygon fill="none" stroke="black" points="642.99,-109.5 642.99,-165.5 731.928,-165.5 731.928,-109.5 642.99,-109.5"/>
<text text-anchor="middle" x="687.459" y="-155.1" font-family="Bitstream Vera Sans" font-size="8.00">leaf</text>
<polyline fill="none" stroke="black" points="642.99,-149.5 731.928,-149.5 "/>
<text text-anchor="start" x="650.99" y="-139.1" font-family="Bitstream Vera Sans" font-size="8.00">ident : string</text>
<text text-anchor="start" x="650.99" y="-131.1" font-family="Bitstream Vera Sans" font-size="8.00">description : string</text>
<text text-anchor="start" x="650.99" y="-123.1" font-family="Bitstream Vera Sans" font-size="8.00">config : boolean</text>
<text text-anchor="start" x="650.99" y="-115.1" font-family="Bitstream Vera Sans" font-size="8.00">mandatory : boolean</text>
</g>
<!-- yang_module_groupings_definitions&#45;&gt;yang_module_groupings_definitions_leaf -->
<g id="edge12" class="edge"><title>yang_module_groupings_definitions&#45;&gt;yang_module_groupings_definitions_leaf</title>
<path fill="none" stroke="black" d="M604.943,-410.856C637.302,-406.294 685.39,-393.865 708.459,-360 746.222,-304.565 723.092,-222.42 704.304,-175.307"/>
<polygon fill="black" stroke="black" points="707.434,-173.716 700.384,-165.808 700.963,-176.387 707.434,-173.716"/>
</g>
<!-- yang_module_groupings_definitions_anyxml -->
<g id="node11" class="node"><title>yang_module_groupings_definitions_anyxml</title>
<polygon fill="none" stroke="black" points="749.99,-109.5 749.99,-165.5 838.928,-165.5 838.928,-109.5 749.99,-109.5"/>
<text text-anchor="middle" x="794.459" y="-155.1" font-family="Bitstream Vera Sans" font-size="8.00">anyxml</text>
<polyline fill="none" stroke="black" points="749.99,-149.5 838.928,-149.5 "/>
<text text-anchor="start" x="757.99" y="-139.1" font-family="Bitstream Vera Sans" font-size="8.00">ident : string</text>
<text text-anchor="start" x="757.99" y="-131.1" font-family="Bitstream Vera Sans" font-size="8.00">description : string</text>
<text text-anchor="start" x="757.99" y="-123.1" font-family="Bitstream Vera Sans" font-size="8.00">config : boolean</text>
<text text-anchor="start" x="757.99" y="-115.1" font-family="Bitstream Vera Sans" font-size="8.00">mandatory : boolean</text>
</g>
<!-- yang_module_groupings_definitions&#45;&gt;yang_module_groupings_definitions_anyxml -->
<g id="edge13" class="edge"><title>yang_module_groupings_definitions&#45;&gt;yang_module_groupings_definitions_anyxml</title>
<path fill="none" stroke="black" d="M604.901,-411.323C640.8,-407.169 697.993,-395.094 731.459,-360 779.785,-309.324 791.474,-224.308 794.037,-175.662"/>
<polygon fill="black" stroke="black" points="797.538,-175.708 794.465,-165.569 790.545,-175.412 797.538,-175.708"/>
</g>
<!-- yang_module_groupings_definitions_leaf_list -->
<g id="node12" class="node"><title>yang_module_groupings_definitions_leaf_list</title>
<polygon fill="none" stroke="black" points="853.99,-202.5 853.99,-258.5 942.928,-258.5 942.928,-202.5 853.99,-202.5"/>
<text text-anchor="middle" x="898.459" y="-248.1" font-family="Bitstream Vera Sans" font-size="8.00">leaf&#45;list</text>
<polyline fill="none" stroke="black" points="853.99,-242.5 942.928,-242.5 "/>
<text text-anchor="start" x="861.99" y="-232.1" font-family="Bitstream Vera Sans" font-size="8.00">ident : string</text>
<text text-anchor="start" x="861.99" y="-224.1" font-family="Bitstream Vera Sans" font-size="8.00">description : string</text>
<text text-anchor="start" x="861.99" y="-216.1" font-family="Bitstream Vera Sans" font-size="8.00">config : boolean</text>
<text text-anchor="start" x="861.99" y="-208.1" font-family="Bitstream Vera Sans" font-size="8.00">mandatory : boolean</text>
</g>
<!-- yang_module_groupings_definitions&#45;&gt;yang_module_groupings_definitions_leaf_list -->
<g id="edge14" class="edge"><title>yang_module_groupings_definitions&#45;&gt;yang_module_groupings_definitions_leaf_list</title>
<path fill="none" stroke="black" d="M604.865,-413.31C680.189,-412.111 863.546,-404.577 901.459,-360 922.576,-335.172 918.619,-296.844 911.327,-268.504"/>
<polygon fill="black" stroke="black" points="914.606,-267.237 908.529,-258.558 907.868,-269.132 914.606,-267.237"/>
</g>
<!-- yang_module_groupings_definitions_uses -->
<g id="node13" class="node"><title>yang_module_groupings_definitions_uses</title>
<polygon fill="none" stroke="black" points="812,-307.5 812,-347.5 892.918,-347.5 892.918,-307.5 812,-307.5"/>
<text text-anchor="middle" x="852.459" y="-337.1" font-family="Bitstream Vera Sans" font-size="8.00">uses</text>
<polyline fill="none" stroke="black" points="812,-331.5 892.918,-331.5 "/>
<text text-anchor="start" x="820" y="-321.1" font-family="Bitstream Vera Sans" font-size="8.00">ident : string</text>
<text text-anchor="start" x="820" y="-313.1" font-family="Bitstream Vera Sans" font-size="8.00">description : string</text>
</g>
<!-- yang_module_groupings_definitions&#45;&gt;yang_module_groupings_definitions_uses -->
<g id="edge15" class="edge"><title>yang_module_groupings_definitions&#45;&gt;yang_module_groupings_definitions_uses</title>
<path fill="none" stroke="black" d="M604.809,-408.928C649.521,-401.924 732.19,-386.489 798.459,-360 803.687,-357.91 809.014,-355.374 814.184,-352.658"/>
<polygon fill="black" stroke="black" points="816.212,-355.536 823.268,-347.633 812.823,-349.411 816.212,-355.536"/>
</g>
<!-- yang_module_groupings_definitions_choice -->
<g id="node14" class="node"><title>yang_module_groupings_definitions_choice</title>
<polygon fill="none" stroke="black" points="948,-307.5 948,-347.5 1028.92,-347.5 1028.92,-307.5 948,-307.5"/>
<text text-anchor="middle" x="988.459" y="-337.1" font-family="Bitstream Vera Sans" font-size="8.00">choice</text>
<polyline fill="none" stroke="black" points="948,-331.5 1028.92,-331.5 "/>
<text text-anchor="start" x="956" y="-321.1" font-family="Bitstream Vera Sans" font-size="8.00">ident : string</text>
<text text-anchor="start" x="956" y="-313.1" font-family="Bitstream Vera Sans" font-size="8.00">description : string</text>
</g>
<!-- yang_module_groupings_definitions&#45;&gt;yang_module_groupings_definitions_choice -->
<g id="edge16" class="edge"><title>yang_module_groupings_definitions&#45;&gt;yang_module_groupings_definitions_choice</title>
<path fill="none" stroke="black" d="M604.909,-412.803C669.475,-410.536 817.86,-400.905 934.459,-360 940.101,-358.021 945.816,-355.434 951.311,-352.594"/>
<polygon fill="black" stroke="black" points="953.233,-355.531 960.299,-347.636 949.852,-349.401 953.233,-355.531"/>
</g>
<!-- yang_module_groupings_definitions_notification -->
<g id="node16" class="node"><title>yang_module_groupings_definitions_notification</title>
<polygon fill="none" stroke="black" points="357,-307.5 357,-347.5 437.918,-347.5 437.918,-307.5 357,-307.5"/>
<text text-anchor="middle" x="397.459" y="-337.1" font-family="Bitstream Vera Sans" font-size="8.00">notification</text>
<polyline fill="none" stroke="black" points="357,-331.5 437.918,-331.5 "/>
<text text-anchor="start" x="365" y="-321.1" font-family="Bitstream Vera Sans" font-size="8.00">ident : string</text>
<text text-anchor="start" x="365" y="-313.1" font-family="Bitstream Vera Sans" font-size="8.00">description : string</text>
</g>
<!-- yang_module_groupings_definitions&#45;&gt;yang_module_groupings_definitions_notification -->
<g id="edge17" class="edge"><title>yang_module_groupings_definitions&#45;&gt;yang_module_groupings_definitions_notification</title>
<path fill="none" stroke="black" d="M540.214,-403.977C512.369,-394.062 471.902,-377.551 438.459,-360 434.362,-357.85 430.158,-355.48 426.059,-353.035"/>
<polygon fill="black" stroke="black" points="427.681,-349.921 417.34,-347.616 423.986,-355.867 427.681,-349.921"/>
</g>
<!-- yang_module_groupings_definitions_action -->
<g id="node17" class="node"><title>yang_module_groupings_definitions_action</title>
<polygon fill="none" stroke="black" points="600,-299.5 600,-355.5 680.918,-355.5 680.918,-299.5 600,-299.5"/>
<text text-anchor="middle" x="640.459" y="-345.1" font-family="Bitstream Vera Sans" font-size="8.00">action</text>
<polyline fill="none" stroke="black" points="600,-339.5 680.918,-339.5 "/>
<text text-anchor="start" x="608" y="-329.1" font-family="Bitstream Vera Sans" font-size="8.00">ident : string</text>
<text text-anchor="start" x="608" y="-321.1" font-family="Bitstream Vera Sans" font-size="8.00">description : string</text>
<text text-anchor="start" x="608" y="-313.1" font-family="Bitstream Vera Sans" font-size="8.00">ident : string</text>
<text text-anchor="start" x="608" y="-305.1" font-family="Bitstream Vera Sans" font-size="8.00">description : string</text>
</g>
<!-- yang_module_groupings_definitions&#45;&gt;yang_module_groupings_definitions_action -->
<g id="edge18" class="edge"><title>yang_module_groupings_definitions&#45;&gt;yang_module_groupings_definitions_action</title>
<path fill="none" stroke="black" d="M586.22,-396.299C593.715,-386.93 603.272,-374.983 612.271,-363.736"/>
<polygon fill="black" stroke="black" points="615.172,-365.711 618.686,-355.716 609.706,-361.338 615.172,-365.711"/>
</g>
<!-- yang_module_groupings_definitions_container&#45;&gt;yang_module_groupings -->
<g id="edge19" class="edge"><title>yang_module_groupings_definitions_container&#45;&gt;yang_module_groupings</title>
<path fill="none" stroke="black" d="M458.091,-355.616C410.764,-385.905 334.809,-434.516 289.067,-463.791"/>
<polygon fill="black" stroke="black" points="287.151,-460.862 280.615,-469.2 290.924,-466.758 287.151,-460.862"/>
</g>
<!-- yang_module_groupings_definitions_container&#45;&gt;yang_module_groupings_typedefs -->
<g id="edge20" class="edge"><title>yang_module_groupings_definitions_container&#45;&gt;yang_module_groupings_typedefs</title>
<path fill="none" stroke="black" d="M491.88,-299.163C480.855,-264.034 461.799,-203.313 450.538,-167.43"/>
<polygon fill="black" stroke="black" points="453.78,-166.071 447.446,-157.578 447.101,-168.167 453.78,-166.071"/>
</g>
<!-- yang_module_groupings_definitions_container&#45;&gt;yang_module_groupings_definitions -->
<g id="edge21" class="edge"><title>yang_module_groupings_definitions_container&#45;&gt;yang_module_groupings_definitions</title>
<path fill="none" stroke="black" d="M529.859,-355.716C539.244,-366.119 549.212,-377.931 557.224,-388.153"/>
<polygon fill="black" stroke="black" points="554.59,-390.47 563.437,-396.299 560.156,-386.225 554.59,-390.47"/>
</g>
<!-- yang_module_groupings_definitions_list&#45;&gt;yang_module_groupings -->
<g id="edge22" class="edge"><title>yang_module_groupings_definitions_list&#45;&gt;yang_module_groupings</title>
<path fill="none" stroke="black" d="M285.882,-359.689C277.927,-388.615 266.182,-431.324 258.428,-459.521"/>
<polygon fill="black" stroke="black" points="255.043,-458.63 255.766,-469.2 261.793,-460.486 255.043,-458.63"/>
</g>
<!-- yang_module_groupings_definitions_list&#45;&gt;yang_module_groupings_typedefs -->
<g id="edge23" class="edge"><title>yang_module_groupings_definitions_list&#45;&gt;yang_module_groupings_typedefs</title>
<path fill="none" stroke="black" d="M318.733,-295.456C346.999,-259.306 393.242,-200.165 420.166,-165.732"/>
<polygon fill="black" stroke="black" points="423.169,-167.573 426.572,-157.539 417.655,-163.261 423.169,-167.573"/>
</g>
<!-- yang_module_groupings_definitions_list&#45;&gt;yang_module_groupings_definitions -->
<g id="edge24" class="edge"><title>yang_module_groupings_definitions_list&#45;&gt;yang_module_groupings_definitions</title>
<path fill="none" stroke="black" d="M339.205,-351.359C345.237,-354.559 351.414,-357.577 357.459,-360 415.351,-383.208 485.863,-397.997 530.083,-406.01"/>
<polygon fill="black" stroke="black" points="529.733,-409.503 540.191,-407.808 530.959,-402.611 529.733,-409.503"/>
</g>
<!-- yang_module_groupings_definitions_leaf&#45;&gt;yang_module_groupings_typedefs_type -->
<g id="edge25" class="edge"><title>yang_module_groupings_definitions_leaf&#45;&gt;yang_module_groupings_typedefs_type</title>
<path fill="none" stroke="black" d="M701.941,-109.448C706.54,-100.858 711.752,-91.1231 716.822,-81.6528"/>
<polygon fill="black" stroke="black" points="719.98,-83.1679 721.615,-72.6999 713.809,-79.8641 719.98,-83.1679"/>
</g>
<!-- yang_module_groupings_definitions_anyxml&#45;&gt;yang_module_groupings_typedefs_type -->
<g id="edge26" class="edge"><title>yang_module_groupings_definitions_anyxml&#45;&gt;yang_module_groupings_typedefs_type</title>
<path fill="none" stroke="black" d="M779.703,-109.448C775.018,-100.858 769.708,-91.1231 764.542,-81.6528"/>
<polygon fill="black" stroke="black" points="767.52,-79.8029 759.659,-72.6999 761.375,-83.1549 767.52,-79.8029"/>
</g>
<!-- yang_module_groupings_definitions_leaf_list&#45;&gt;yang_module_groupings_typedefs_type -->
<g id="edge27" class="edge"><title>yang_module_groupings_definitions_leaf_list&#45;&gt;yang_module_groupings_typedefs_type</title>
<path fill="none" stroke="black" d="M891.817,-202.203C884.4,-176.077 870.335,-136.658 847.459,-109 833.076,-91.6108 813.387,-76.8131 794.817,-65.2689"/>
<polygon fill="black" stroke="black" points="796.477,-62.1836 786.103,-60.0315 792.871,-68.1832 796.477,-62.1836"/>
</g>
<!-- yang_module_groupings_definitions_choice_cases -->
<g id="node15" class="node"><title>yang_module_groupings_definitions_choice_cases</title>
<polygon fill="none" stroke="black" points="980.67,-212.5 980.67,-248.5 1040.25,-248.5 1040.25,-212.5 980.67,-212.5"/>
<text text-anchor="middle" x="1010.46" y="-237.1" font-family="Bitstream Vera Sans" font-size="8.00">cases[因</text>
<polyline fill="none" stroke="black" points="980.67,-230.5 1040.25,-230.5 "/>
<text text-anchor="start" x="988.67" y="-219.1" font-family="Bitstream Vera Sans" font-size="8.00">ident : string</text>
</g>
<!-- yang_module_groupings_definitions_choice&#45;&gt;yang_module_groupings_definitions_choice_cases -->
<g id="edge28" class="edge"><title>yang_module_groupings_definitions_choice&#45;&gt;yang_module_groupings_definitions_choice_cases</title>
<path fill="none" stroke="black" d="M992.911,-307.275C996.135,-293.355 1000.54,-274.341 1004.13,-258.842"/>
<polygon fill="black" stroke="black" points="1007.61,-259.311 1006.46,-248.78 1000.79,-257.732 1007.61,-259.311"/>
</g>
<!-- yang_module_groupings_definitions_choice_cases&#45;&gt;yang_module_groupings_definitions -->
<g id="edge29" class="edge"><title>yang_module_groupings_definitions_choice_cases&#45;&gt;yang_module_groupings_definitions</title>
<path fill="none" stroke="black" d="M1022.29,-248.846C1039.21,-276.006 1065.37,-328.691 1037.46,-360 1009.56,-391.29 724.533,-406.897 615.009,-411.774"/>
<polygon fill="black" stroke="black" points="614.81,-408.279 604.972,-412.213 615.116,-415.273 614.81,-408.279"/>
</g>
<!-- yang_module_groupings_definitions_notification&#45;&gt;yang_module_groupings -->
<g id="edge30" class="edge"><title>yang_module_groupings_definitions_notification&#45;&gt;yang_module_groupings</title>
<path fill="none" stroke="black" d="M379.664,-347.868C353.581,-376.258 304.864,-429.283 275.276,-461.489"/>
<polygon fill="black" stroke="black" points="272.379,-459.468 268.191,-469.2 277.534,-464.204 272.379,-459.468"/>
</g>
<!-- yang_module_groupings_definitions_notification&#45;&gt;yang_module_groupings_typedefs -->
<g id="edge31" class="edge"><title>yang_module_groupings_definitions_notification&#45;&gt;yang_module_groupings_typedefs</title>
<path fill="none" stroke="black" d="M401.92,-307.439C409.629,-274.503 425.489,-206.734 434.606,-167.781"/>
<polygon fill="black" stroke="black" points="438.115,-168.146 436.986,-157.611 431.299,-166.551 438.115,-168.146"/>
</g>
<!-- yang_module_groupings_definitions_notification&#45;&gt;yang_module_groupings_definitions -->
<g id="edge32" class="edge"><title>yang_module_groupings_definitions_notification&#45;&gt;yang_module_groupings_definitions</title>
<path fill="none" stroke="black" d="M434.831,-347.616C441.963,-351.904 449.373,-356.281 456.459,-360 480.601,-372.67 508.403,-384.797 530.822,-394.293"/>
<polygon fill="black" stroke="black" points="529.5,-397.534 540.074,-398.195 532.22,-391.084 529.5,-397.534"/>
</g>
<!-- yang_module_groupings_definitions_action_input -->
<g id="node18" class="node"><title>yang_module_groupings_definitions_action_input</title>
<polygon fill="none" stroke="black" points="508.459,-212.5 508.459,-248.5 562.459,-248.5 562.459,-212.5 508.459,-212.5"/>
<text text-anchor="middle" x="535.133" y="-237.1" font-family="Bitstream Vera Sans" font-size="8.00">input</text>
<polyline fill="none" stroke="black" points="508.459,-230.5 561.807,-230.5 "/>
<text text-anchor="middle" x="535.133" y="-219.1" font-family="Bitstream Vera Sans" font-size="8.00"> </text>
</g>
<!-- yang_module_groupings_definitions_action&#45;&gt;yang_module_groupings_definitions_action_input -->
<g id="edge33" class="edge"><title>yang_module_groupings_definitions_action&#45;&gt;yang_module_groupings_definitions_action_input</title>
<path fill="none" stroke="black" d="M610.37,-299.277C595.133,-285.491 576.795,-268.899 562.077,-255.583"/>
<polygon fill="black" stroke="black" points="564.079,-252.674 554.315,-248.56 559.382,-257.865 564.079,-252.674"/>
</g>
<!-- yang_module_groupings_definitions_action_output -->
<g id="node19" class="node"><title>yang_module_groupings_definitions_action_output</title>
<polygon fill="none" stroke="black" points="591.459,-212.5 591.459,-248.5 645.459,-248.5 645.459,-212.5 591.459,-212.5"/>
<text text-anchor="middle" x="618.08" y="-237.1" font-family="Bitstream Vera Sans" font-size="8.00">output</text>
<polyline fill="none" stroke="black" points="591.459,-230.5 644.701,-230.5 "/>
<text text-anchor="middle" x="618.08" y="-219.1" font-family="Bitstream Vera Sans" font-size="8.00"> </text>
</g>
<!-- yang_module_groupings_definitions_action&#45;&gt;yang_module_groupings_definitions_action_output -->
<g id="edge34" class="edge"><title>yang_module_groupings_definitions_action&#45;&gt;yang_module_groupings_definitions_action_output</title>
<path fill="none" stroke="black" d="M634.155,-299.277C631.199,-286.512 627.686,-271.342 624.733,-258.594"/>
<polygon fill="black" stroke="black" points="628.076,-257.513 622.41,-248.56 621.256,-259.092 628.076,-257.513"/>
</g>
<!-- yang_module_groupings_definitions_action_input&#45;&gt;yang_module_groupings -->
<g id="edge35" class="edge"><title>yang_module_groupings_definitions_action_input&#45;&gt;yang_module_groupings</title>
<path fill="none" stroke="black" d="M508.29,-232.513C436.836,-235.803 246.536,-248.818 208.459,-295 169.442,-342.323 188.938,-374.856 208.459,-433 211.863,-443.138 217.932,-452.899 224.418,-461.333"/>
<polygon fill="black" stroke="black" points="221.905,-463.787 230.959,-469.288 227.312,-459.341 221.905,-463.787"/>
</g>
<!-- yang_module_groupings_definitions_action_input&#45;&gt;yang_module_groupings_typedefs -->
<g id="edge36" class="edge"><title>yang_module_groupings_definitions_action_input&#45;&gt;yang_module_groupings_typedefs</title>
<path fill="none" stroke="black" d="M517.778,-212.384C503.976,-199.022 484.556,-180.222 468.761,-164.931"/>
<polygon fill="black" stroke="black" points="470.958,-162.186 461.338,-157.745 466.089,-167.215 470.958,-162.186"/>
</g>
<!-- yang_module_groupings_definitions_action_input&#45;&gt;yang_module_groupings_definitions -->
<g id="edge37" class="edge"><title>yang_module_groupings_definitions_action_input&#45;&gt;yang_module_groupings_definitions</title>
<path fill="none" stroke="black" d="M540.899,-248.61C544.792,-261.313 549.946,-279.112 553.459,-295 560.285,-325.874 565.695,-361.787 568.969,-385.914"/>
<polygon fill="black" stroke="black" points="565.537,-386.657 570.32,-396.11 572.476,-385.737 565.537,-386.657"/>
</g>
<!-- yang_module_groupings_definitions_action_output&#45;&gt;yang_module_groupings -->
<g id="edge38" class="edge"><title>yang_module_groupings_definitions_action_output&#45;&gt;yang_module_groupings</title>
<path fill="none" stroke="black" d="M593.531,-248.688C586.652,-252.692 578.999,-256.509 571.459,-259 501.413,-282.137 290.712,-240.082 241.459,-295 200.82,-340.313 222.143,-418.273 238.127,-460.068"/>
<polygon fill="black" stroke="black" points="234.885,-461.389 241.834,-469.388 241.39,-458.802 234.885,-461.389"/>
</g>
<!-- yang_module_groupings_definitions_action_output&#45;&gt;yang_module_groupings_typedefs -->
<g id="edge39" class="edge"><title>yang_module_groupings_definitions_action_output&#45;&gt;yang_module_groupings_typedefs</title>
<path fill="none" stroke="black" d="M591.317,-213.154C584.861,-209.396 577.959,-205.483 571.459,-202 545.25,-187.957 515.483,-173.323 491.052,-161.648"/>
<polygon fill="black" stroke="black" points="492.502,-158.462 481.968,-157.326 489.494,-164.783 492.502,-158.462"/>
</g>
<!-- yang_module_groupings_definitions_action_output&#45;&gt;yang_module_groupings_definitions -->
<g id="edge40" class="edge"><title>yang_module_groupings_definitions_action_output&#45;&gt;yang_module_groupings_definitions</title>
<path fill="none" stroke="black" d="M645.661,-247.486C661.666,-258.567 680.479,-274.922 689.459,-295 701.253,-321.372 705.072,-335.693 689.459,-360 673.029,-385.579 640.996,-399.082 614.596,-406.119"/>
<polygon fill="black" stroke="black" points="613.682,-402.739 604.798,-408.511 615.342,-409.539 613.682,-402.739"/>
</g>
</g>
</svg>
