<?xml version="1.0" encoding="UTF-8" standalone="no"?>
<!DOCTYPE svg PUBLIC "-//W3C//DTD SVG 1.1//EN"
 "http://www.w3.org/Graphics/SVG/1.1/DTD/svg11.dtd">
<!-- Generated by graphviz version 2.38.0 (20140413.2041)
 -->
<!-- Title: G Pages: 1 -->
<svg width="283pt" height="312pt"
 viewBox="0.00 0.00 283.37 312.00" xmlns="http://www.w3.org/2000/svg" xmlns:xlink="http://www.w3.org/1999/xlink">
<g id="graph0" class="graph" transform="scale(1 1) rotate(0) translate(4 308)">
<title>G</title>
<polygon fill="white" stroke="none" points="-4,4 -4,-308 279.371,-308 279.371,4 -4,4"/>
<!-- ietf_yang_library -->
<g id="node1" class="node"><title>ietf_yang_library</title>
<polygon fill="none" stroke="black" points="104.25,-267.5 104.25,-303.5 158.25,-303.5 158.25,-267.5 104.25,-267.5"/>
<text text-anchor="middle" x="130.861" y="-292.1" font-family="Bitstream Vera Sans" font-size="8.00"> </text>
<polyline fill="none" stroke="black" points="104.25,-285.5 157.473,-285.5 "/>
<text text-anchor="middle" x="130.861" y="-274.1" font-family="Bitstream Vera Sans" font-size="8.00"> </text>
</g>
<!-- ietf_yang_library_yang_library_change -->
<g id="node2" class="node"><title>ietf_yang_library_yang_library_change</title>
<polygon fill="none" stroke="#4fb32e" points="0,-194.5 0,-230.5 132.5,-230.5 132.5,-194.5 0,-194.5"/>
<text text-anchor="middle" x="66.25" y="-219.1" font-family="Bitstream Vera Sans" font-size="8.00">yang&#45;library&#45;change (notification)</text>
<polyline fill="none" stroke="#4fb32e" points="0,-212.5 132.5,-212.5 "/>
<text text-anchor="start" x="8" y="-201.1" font-family="Bitstream Vera Sans" font-size="8.00">module&#45;set&#45;id : leafref</text>
</g>
<!-- ietf_yang_library&#45;&gt;ietf_yang_library_yang_library_change -->
<g id="edge1" class="edge"><title>ietf_yang_library&#45;&gt;ietf_yang_library_yang_library_change</title>
<path fill="none" stroke="#4fb32e" stroke-dasharray="5,2" d="M115.515,-267.313C107.451,-258.505 97.4912,-247.625 88.6415,-237.958"/>
<polygon fill="#4fb32e" stroke="#4fb32e" points="91.1739,-235.541 81.8398,-230.529 86.0108,-240.268 91.1739,-235.541"/>
</g>
<!-- ietf_yang_library_modules_state -->
<g id="node3" class="node"><title>ietf_yang_library_modules_state</title>
<polygon fill="none" stroke="black" points="150.902,-194.5 150.902,-230.5 241.598,-230.5 241.598,-194.5 150.902,-194.5"/>
<text text-anchor="middle" x="196.25" y="-219.1" font-family="Bitstream Vera Sans" font-size="8.00">modules&#45;state</text>
<polyline fill="none" stroke="black" points="150.902,-212.5 241.598,-212.5 "/>
<text text-anchor="start" x="158.902" y="-201.1" font-family="Bitstream Vera Sans" font-size="8.00">module&#45;set&#45;id : string</text>
</g>
<!-- ietf_yang_library&#45;&gt;ietf_yang_library_modules_state -->
<g id="edge2" class="edge"><title>ietf_yang_library&#45;&gt;ietf_yang_library_modules_state</title>
<path fill="none" stroke="black" d="M146.985,-267.313C155.049,-258.505 165.009,-247.625 173.858,-237.958"/>
<polygon fill="black" stroke="black" points="176.489,-240.268 180.66,-230.529 171.326,-235.541 176.489,-240.268"/>
</g>
<!-- ietf_yang_library_modules_state_module -->
<g id="node4" class="node"><title>ietf_yang_library_modules_state_module</title>
<polygon fill="none" stroke="black" points="130.664,-85.5 130.664,-157.5 261.836,-157.5 261.836,-85.5 130.664,-85.5"/>
<text text-anchor="middle" x="196.25" y="-147.1" font-family="Bitstream Vera Sans" font-size="8.00">module[…]</text>
<polyline fill="none" stroke="black" points="130.664,-141.5 261.836,-141.5 "/>
<text text-anchor="start" x="138.664" y="-131.1" font-family="Bitstream Vera Sans" font-size="8.00">name : string</text>
<text text-anchor="start" x="138.664" y="-123.1" font-family="Bitstream Vera Sans" font-size="8.00">revision : string</text>
<text text-anchor="start" x="138.664" y="-115.1" font-family="Bitstream Vera Sans" font-size="8.00">schema : string</text>
<text text-anchor="start" x="138.664" y="-107.1" font-family="Bitstream Vera Sans" font-size="8.00">namespace : string</text>
<text text-anchor="start" x="138.664" y="-99.1" font-family="Bitstream Vera Sans" font-size="8.00">feature : string[]</text>
<text text-anchor="start" x="138.664" y="-91.1" font-family="Bitstream Vera Sans" font-size="8.00">conformance&#45;type : enumeration</text>
</g>
<!-- ietf_yang_library_modules_state&#45;&gt;ietf_yang_library_modules_state_module -->
<g id="edge3" class="edge"><title>ietf_yang_library_modules_state&#45;&gt;ietf_yang_library_modules_state_module</title>
<path fill="none" stroke="black" d="M196.25,-194.34C196.25,-186.698 196.25,-177.301 196.25,-167.852"/>
<polygon fill="black" stroke="black" points="199.75,-167.659 196.25,-157.659 192.75,-167.659 199.75,-167.659"/>
</g>
<!-- ietf_yang_library_modules_state_module_deviation -->
<g id="node5" class="node"><title>ietf_yang_library_modules_state_module_deviation</title>
<polygon fill="none" stroke="black" points="117.352,-4.5 117.352,-44.5 187.148,-44.5 187.148,-4.5 117.352,-4.5"/>
<text text-anchor="middle" x="152.25" y="-34.1" font-family="Bitstream Vera Sans" font-size="8.00">deviation[…]</text>
<polyline fill="none" stroke="black" points="117.352,-28.5 187.148,-28.5 "/>
<text text-anchor="start" x="125.352" y="-18.1" font-family="Bitstream Vera Sans" font-size="8.00">name : string</text>
<text text-anchor="start" x="125.352" y="-10.1" font-family="Bitstream Vera Sans" font-size="8.00">revision : string</text>
</g>
<!-- ietf_yang_library_modules_state_module&#45;&gt;ietf_yang_library_modules_state_module_deviation -->
<g id="edge4" class="edge"><title>ietf_yang_library_modules_state_module&#45;&gt;ietf_yang_library_modules_state_module_deviation</title>
<path fill="none" stroke="black" d="M179.991,-85.3954C175.217,-75.0886 170.056,-63.9446 165.495,-54.0962"/>
<polygon fill="black" stroke="black" points="168.548,-52.3617 161.17,-44.7586 162.197,-55.3036 168.548,-52.3617"/>
</g>
<!-- ietf_yang_library_modules_state_module_submodule -->
<g id="node6" class="node"><title>ietf_yang_library_modules_state_module_submodule</title>
<polygon fill="none" stroke="black" points="205.129,-0.5 205.129,-48.5 275.371,-48.5 275.371,-0.5 205.129,-0.5"/>
<text text-anchor="middle" x="240.25" y="-38.1" font-family="Bitstream Vera Sans" font-size="8.00">submodule[…]</text>
<polyline fill="none" stroke="black" points="205.129,-32.5 275.371,-32.5 "/>
<text text-anchor="start" x="213.129" y="-22.1" font-family="Bitstream Vera Sans" font-size="8.00">name : string</text>
<text text-anchor="start" x="213.129" y="-14.1" font-family="Bitstream Vera Sans" font-size="8.00">revision : string</text>
<text text-anchor="start" x="213.129" y="-6.1" font-family="Bitstream Vera Sans" font-size="8.00">schema : string</text>
</g>
<!-- ietf_yang_library_modules_state_module&#45;&gt;ietf_yang_library_modules_state_module_submodule -->
<g id="edge5" class="edge"><title>ietf_yang_library_modules_state_module&#45;&gt;ietf_yang_library_modules_state_module_submodule</title>
<path fill="none" stroke="black" d="M212.509,-85.3954C216.68,-76.3902 221.147,-66.7459 225.251,-57.8849"/>
<polygon fill="black" stroke="black" points="228.504,-59.1897 229.53,-48.6447 222.152,-56.2477 228.504,-59.1897"/>
</g>
</g>
</svg>
