<?xml version="1.0" encoding="UTF-8" standalone="no"?>
<!DOCTYPE svg PUBLIC "-//W3C//DTD SVG 1.1//EN"
 "http://www.w3.org/Graphics/SVG/1.1/DTD/svg11.dtd">
<!-- Generated by graphviz version 2.38.0 (20140413.2041)
 -->
<!-- Title: G Pages: 1 -->
<svg width="481pt" height="239pt"
 viewBox="0.00 0.00 481.33 239.00" xmlns="http://www.w3.org/2000/svg" xmlns:xlink="http://www.w3.org/1999/xlink">
<g id="graph0" class="graph" transform="scale(1 1) rotate(0) translate(4 235)">
<title>G</title>
<polygon fill="white" stroke="none" points="-4,4 -4,-235 477.328,-235 477.328,4 -4,4"/>
<!-- car -->
<g id="node1" class="node"><title>car</title>
<polygon fill="none" stroke="black" points="209.289,-174.5 209.289,-230.5 291.551,-230.5 291.551,-174.5 209.289,-174.5"/>
<text text-anchor="middle" x="250.42" y="-220.1" font-family="Bitstream Vera Sans" font-size="8.00"> </text>
<polyline fill="none" stroke="black" points="209.289,-214.5 291.551,-214.5 "/>
<text text-anchor="start" x="217.289" y="-204.1" font-family="Bitstream Vera Sans" font-size="8.00">miles : int64</text>
<text text-anchor="start" x="217.289" y="-196.1" font-family="Bitstream Vera Sans" font-size="8.00">lastRotation : int64</text>
<text text-anchor="start" x="217.289" y="-188.1" font-family="Bitstream Vera Sans" font-size="8.00">running : boolean</text>
<text text-anchor="start" x="217.289" y="-180.1" font-family="Bitstream Vera Sans" font-size="8.00">speed : int32</text>
</g>
<!-- car_rotateTires -->
<g id="node2" class="node"><title>car_rotateTires</title>
<polygon fill="none" stroke="#b64ff7" points="0,-87.5 0,-123.5 82.8398,-123.5 82.8398,-87.5 0,-87.5"/>
<text text-anchor="middle" x="41.4199" y="-112.1" font-family="Bitstream Vera Sans" font-size="8.00">rotateTires (action)</text>
<polyline fill="none" stroke="#b64ff7" points="0,-105.5 82.8398,-105.5 "/>
<text text-anchor="middle" x="41.4199" y="-94.1" font-family="Bitstream Vera Sans" font-size="8.00"> </text>
</g>
<!-- car&#45;&gt;car_rotateTires -->
<g id="edge1" class="edge"><title>car&#45;&gt;car_rotateTires</title>
<path fill="none" stroke="#b64ff7" stroke-dasharray="5,2" d="M208.98,-187.06C176.604,-175.254 130.814,-157.393 92.4199,-138 87.0046,-135.265 81.411,-132.142 76.001,-128.949"/>
<polygon fill="#b64ff7" stroke="#b64ff7" points="77.4985,-125.764 67.1338,-123.568 73.8666,-131.748 77.4985,-125.764"/>
</g>
<!-- car_replaceTires -->
<g id="node3" class="node"><title>car_replaceTires</title>
<polygon fill="none" stroke="#b64ff7" points="101.109,-87.5 101.109,-123.5 189.73,-123.5 189.73,-87.5 101.109,-87.5"/>
<text text-anchor="middle" x="145.42" y="-112.1" font-family="Bitstream Vera Sans" font-size="8.00">replaceTires (action)</text>
<polyline fill="none" stroke="#b64ff7" points="101.109,-105.5 189.73,-105.5 "/>
<text text-anchor="middle" x="145.42" y="-94.1" font-family="Bitstream Vera Sans" font-size="8.00"> </text>
</g>
<!-- car&#45;&gt;car_replaceTires -->
<g id="edge2" class="edge"><title>car&#45;&gt;car_replaceTires</title>
<path fill="none" stroke="#b64ff7" stroke-dasharray="5,2" d="M220.331,-174.277C205.094,-160.491 186.756,-143.899 172.038,-130.583"/>
<polygon fill="#b64ff7" stroke="#b64ff7" points="174.04,-127.674 164.276,-123.56 169.343,-132.865 174.04,-127.674"/>
</g>
<!-- car_update -->
<g id="node4" class="node"><title>car_update</title>
<polygon fill="none" stroke="#4fb32e" points="207.287,-73.5 207.287,-137.5 293.553,-137.5 293.553,-73.5 207.287,-73.5"/>
<text text-anchor="middle" x="250.42" y="-127.1" font-family="Bitstream Vera Sans" font-size="8.00">update (notification)</text>
<polyline fill="none" stroke="#4fb32e" points="207.287,-121.5 293.553,-121.5 "/>
<text text-anchor="start" x="215.287" y="-111.1" font-family="Bitstream Vera Sans" font-size="8.00">tire[…] : </text>
<text text-anchor="start" x="215.287" y="-103.1" font-family="Bitstream Vera Sans" font-size="8.00">miles : int64</text>
<text text-anchor="start" x="215.287" y="-95.1" font-family="Bitstream Vera Sans" font-size="8.00">lastRotation : int64</text>
<text text-anchor="start" x="215.287" y="-87.1" font-family="Bitstream Vera Sans" font-size="8.00">running : boolean</text>
<text text-anchor="start" x="215.287" y="-79.1" font-family="Bitstream Vera Sans" font-size="8.00">speed : int32</text>
</g>
<!-- car&#45;&gt;car_update -->
<g id="edge3" class="edge"><title>car&#45;&gt;car_update</title>
<path fill="none" stroke="#4fb32e" stroke-dasharray="5,2" d="M250.42,-174.277C250.42,-166.08 250.42,-156.891 250.42,-147.989"/>
<polygon fill="#4fb32e" stroke="#4fb32e" points="253.92,-147.746 250.42,-137.746 246.92,-147.746 253.92,-147.746"/>
</g>
<!-- car_tire -->
<g id="node5" class="node"><title>car_tire</title>
<polygon fill="none" stroke="black" points="311.184,-73.5 311.184,-137.5 387.656,-137.5 387.656,-73.5 311.184,-73.5"/>
<text text-anchor="middle" x="349.42" y="-127.1" font-family="Bitstream Vera Sans" font-size="8.00">tire[…]</text>
<polyline fill="none" stroke="black" points="311.184,-121.5 387.656,-121.5 "/>
<text text-anchor="start" x="319.184" y="-111.1" font-family="Bitstream Vera Sans" font-size="8.00">pos : int32</text>
<text text-anchor="start" x="319.184" y="-103.1" font-family="Bitstream Vera Sans" font-size="8.00">size : string</text>
<text text-anchor="start" x="319.184" y="-95.1" font-family="Bitstream Vera Sans" font-size="8.00">worn : boolean</text>
<text text-anchor="start" x="319.184" y="-87.1" font-family="Bitstream Vera Sans" font-size="8.00">wear : decimal64</text>
<text text-anchor="start" x="319.184" y="-79.1" font-family="Bitstream Vera Sans" font-size="8.00">flat : boolean</text>
</g>
<!-- car&#45;&gt;car_tire -->
<g id="edge4" class="edge"><title>car&#45;&gt;car_tire</title>
<path fill="none" stroke="black" d="M278.789,-174.277C288.353,-165.1 299.211,-154.68 309.497,-144.81"/>
<polygon fill="black" stroke="black" points="312.066,-147.196 316.858,-137.746 307.219,-142.145 312.066,-147.196"/>
</g>
<!-- car_engine -->
<g id="node6" class="node"><title>car_engine</title>
<polygon fill="none" stroke="black" points="405.42,-87.5 405.42,-123.5 459.42,-123.5 459.42,-87.5 405.42,-87.5"/>
<text text-anchor="middle" x="431.932" y="-112.1" font-family="Bitstream Vera Sans" font-size="8.00">engine</text>
<polyline fill="none" stroke="black" points="405.42,-105.5 458.443,-105.5 "/>
<text text-anchor="middle" x="431.932" y="-94.1" font-family="Bitstream Vera Sans" font-size="8.00"> </text>
</g>
<!-- car&#45;&gt;car_engine -->
<g id="edge5" class="edge"><title>car&#45;&gt;car_engine</title>
<path fill="none" stroke="black" d="M291.764,-187.431C321.966,-176.241 363.26,-159 396.42,-138 400.051,-135.701 403.685,-133.044 407.172,-130.268"/>
<polygon fill="black" stroke="black" points="409.587,-132.81 414.974,-123.686 405.073,-127.459 409.587,-132.81"/>
</g>
<!-- car_engine_specs -->
<g id="node7" class="node"><title>car_engine_specs</title>
<polygon fill="none" stroke="black" points="391.512,-0.5 391.512,-36.5 473.328,-36.5 473.328,-0.5 391.512,-0.5"/>
<text text-anchor="middle" x="432.42" y="-25.1" font-family="Bitstream Vera Sans" font-size="8.00">specs</text>
<polyline fill="none" stroke="black" points="391.512,-18.5 473.328,-18.5 "/>
<text text-anchor="start" x="399.512" y="-7.1" font-family="Bitstream Vera Sans" font-size="8.00">horsepower : int32</text>
</g>
<!-- car_engine&#45;&gt;car_engine_specs -->
<g id="edge6" class="edge"><title>car_engine&#45;&gt;car_engine_specs</title>
<path fill="none" stroke="black" d="M432.42,-87.299C432.42,-75.6626 432.42,-60.0479 432.42,-46.7368"/>
<polygon fill="black" stroke="black" points="435.92,-46.6754 432.42,-36.6754 428.92,-46.6755 435.92,-46.6754"/>
</g>
</g>
</svg>
