<?xml version="1.0" encoding="UTF-8" standalone="no"?>
<!DOCTYPE svg PUBLIC "-//W3C//DTD SVG 1.1//EN"
 "http://www.w3.org/Graphics/SVG/1.1/DTD/svg11.dtd">
<!-- Generated by graphviz version 2.38.0 (20140413.2041)
 -->
<!-- Title: G Pages: 1 -->
<svg width="357pt" height="219pt"
 viewBox="0.00 0.00 357.33 219.00" xmlns="http://www.w3.org/2000/svg" xmlns:xlink="http://www.w3.org/1999/xlink">
<g id="graph0" class="graph" transform="scale(1 1) rotate(0) translate(4 215)">
<title>G</title>
<polygon fill="white" stroke="none" points="-4,4 -4,-215 353.328,-215 353.328,4 -4,4"/>
<!-- _car -->
<g id="node1" class="node"><title>_car</title>
<polygon fill="none" stroke="black" points="145.078,-174.5 145.078,-210.5 203.762,-210.5 203.762,-174.5 145.078,-174.5"/>
<text text-anchor="middle" x="174.42" y="-199.1" font-family="Bitstream Vera Sans" font-size="8.00"> </text>
<polyline fill="none" stroke="black" points="145.078,-192.5 203.762,-192.5 "/>
<text text-anchor="start" x="153.078" y="-181.1" font-family="Bitstream Vera Sans" font-size="8.00">miles : int64</text>
</g>
<!-- _car_rotateTires -->
<g id="node2" class="node"><title>_car_rotateTires</title>
<polygon fill="none" stroke="#b64ff7" points="0,-87.5 0,-123.5 82.8398,-123.5 82.8398,-87.5 0,-87.5"/>
<text text-anchor="middle" x="41.4199" y="-112.1" font-family="Bitstream Vera Sans" font-size="8.00">rotateTires (action)</text>
<polyline fill="none" stroke="#b64ff7" points="0,-105.5 82.8398,-105.5 "/>
<text text-anchor="middle" x="41.4199" y="-94.1" font-family="Bitstream Vera Sans" font-size="8.00"> </text>
</g>
<!-- _car&#45;&gt;_car_rotateTires -->
<g id="edge1" class="edge"><title>_car&#45;&gt;_car_rotateTires</title>
<path fill="none" stroke="#b64ff7" stroke-dasharray="5,2" d="M147.505,-174.299C127.135,-161.28 98.9719,-143.281 76.7828,-129.1"/>
<polygon fill="#b64ff7" stroke="#b64ff7" points="78.6054,-126.111 68.2944,-123.675 74.8358,-132.01 78.6054,-126.111"/>
</g>
<!-- _car_update -->
<g id="node3" class="node"><title>_car_update</title>
<polygon fill="none" stroke="#4fb32e" points="101.18,-87.5 101.18,-123.5 161.66,-123.5 161.66,-87.5 101.18,-87.5"/>
<text text-anchor="middle" x="131.42" y="-103.1" font-family="Bitstream Vera Sans" font-size="8.00">_car_update</text>
</g>
<!-- _car&#45;&gt;_car_update -->
<g id="edge2" class="edge"><title>_car&#45;&gt;_car_update</title>
<path fill="none" stroke="#4fb32e" stroke-dasharray="5,2" d="M165.718,-174.299C159.715,-162.432 151.619,-146.428 144.8,-132.949"/>
<polygon fill="#4fb32e" stroke="#4fb32e" points="147.746,-131.019 140.109,-123.675 141.5,-134.179 147.746,-131.019"/>
</g>
<!-- _tire -->
<g id="node4" class="node"><title>_tire</title>
<polygon fill="none" stroke="black" points="179.184,-73.5 179.184,-137.5 255.656,-137.5 255.656,-73.5 179.184,-73.5"/>
<text text-anchor="middle" x="217.42" y="-127.1" font-family="Bitstream Vera Sans" font-size="8.00">tire</text>
<polyline fill="none" stroke="black" points="179.184,-121.5 255.656,-121.5 "/>
<text text-anchor="start" x="187.184" y="-111.1" font-family="Bitstream Vera Sans" font-size="8.00">pos : int32</text>
<text text-anchor="start" x="187.184" y="-103.1" font-family="Bitstream Vera Sans" font-size="8.00">size : string</text>
<text text-anchor="start" x="187.184" y="-95.1" font-family="Bitstream Vera Sans" font-size="8.00">worn : boolean</text>
<text text-anchor="start" x="187.184" y="-87.1" font-family="Bitstream Vera Sans" font-size="8.00">wear : decimal64</text>
<text text-anchor="start" x="187.184" y="-79.1" font-family="Bitstream Vera Sans" font-size="8.00">flat : boolean</text>
</g>
<!-- _car&#45;&gt;_tire -->
<g id="edge4" class="edge"><title>_car&#45;&gt;_tire</title>
<path fill="none" stroke="black" d="M183.122,-174.299C187.139,-166.358 192.093,-156.565 196.974,-146.916"/>
<polygon fill="black" stroke="black" points="200.208,-148.277 201.599,-137.774 193.962,-145.117 200.208,-148.277"/>
</g>
<!-- _engine -->
<g id="node6" class="node"><title>_engine</title>
<polygon fill="none" stroke="black" points="278.42,-87.5 278.42,-123.5 332.42,-123.5 332.42,-87.5 278.42,-87.5"/>
<text text-anchor="middle" x="304.932" y="-112.1" font-family="Bitstream Vera Sans" font-size="8.00">engine</text>
<polyline fill="none" stroke="black" points="278.42,-105.5 331.443,-105.5 "/>
<text text-anchor="middle" x="304.932" y="-94.1" font-family="Bitstream Vera Sans" font-size="8.00"> </text>
</g>
<!-- _car&#45;&gt;_engine -->
<g id="edge5" class="edge"><title>_car&#45;&gt;_engine</title>
<path fill="none" stroke="black" d="M204.15,-175.013C221.957,-164.848 244.86,-151.259 264.42,-138 268.2,-135.438 272.097,-132.65 275.915,-129.827"/>
<polygon fill="black" stroke="black" points="278.201,-132.486 284.071,-123.666 273.982,-126.901 278.201,-132.486"/>
</g>
<!-- _tire_change -->
<g id="node5" class="node"><title>_tire_change</title>
<polygon fill="none" stroke="#b64ff7" points="178.848,-0.5 178.848,-36.5 249.992,-36.5 249.992,-0.5 178.848,-0.5"/>
<text text-anchor="middle" x="214.42" y="-25.1" font-family="Bitstream Vera Sans" font-size="8.00">change (action)</text>
<polyline fill="none" stroke="#b64ff7" points="178.848,-18.5 249.992,-18.5 "/>
<text text-anchor="middle" x="214.42" y="-7.1" font-family="Bitstream Vera Sans" font-size="8.00"> </text>
</g>
<!-- _tire&#45;&gt;_tire_change -->
<g id="edge3" class="edge"><title>_tire&#45;&gt;_tire_change</title>
<path fill="none" stroke="#b64ff7" stroke-dasharray="5,2" d="M216.32,-73.3318C216.014,-64.67 215.685,-55.3307 215.387,-46.9021"/>
<polygon fill="#b64ff7" stroke="#b64ff7" points="218.882,-46.7026 215.032,-36.8323 211.887,-46.9496 218.882,-46.7026"/>
</g>
<!-- _engine_specs -->
<g id="node7" class="node"><title>_engine_specs</title>
<polygon fill="none" stroke="black" points="267.512,-0.5 267.512,-36.5 349.328,-36.5 349.328,-0.5 267.512,-0.5"/>
<text text-anchor="middle" x="308.42" y="-25.1" font-family="Bitstream Vera Sans" font-size="8.00">specs</text>
<polyline fill="none" stroke="black" points="267.512,-18.5 349.328,-18.5 "/>
<text text-anchor="start" x="275.512" y="-7.1" font-family="Bitstream Vera Sans" font-size="8.00">horsepower : int32</text>
</g>
<!-- _engine&#45;&gt;_engine_specs -->
<g id="edge6" class="edge"><title>_engine&#45;&gt;_engine_specs</title>
<path fill="none" stroke="black" d="M306.027,-87.299C306.438,-75.6626 306.989,-60.0479 307.459,-46.7368"/>
<polygon fill="black" stroke="black" points="310.959,-46.7927 307.814,-36.6754 303.963,-46.5457 310.959,-46.7927"/>
</g>
</g>
</svg>
