<?xml version="1.0" encoding="UTF-8" standalone="no"?>
<!DOCTYPE svg PUBLIC "-//W3C//DTD SVG 1.1//EN"
 "http://www.w3.org/Graphics/SVG/1.1/DTD/svg11.dtd">
<!-- Generated by graphviz version 2.38.0 (20140413.2041)
 -->
<!-- Title: G Pages: 1 -->
<svg width="481pt" height="231pt"
 viewBox="0.00 0.00 481.33 231.00" xmlns="http://www.w3.org/2000/svg" xmlns:xlink="http://www.w3.org/1999/xlink">
<g id="graph0" class="graph" transform="scale(1 1) rotate(0) translate(4 227)">
<title>G</title>
<polygon fill="white" stroke="none" points="-4,4 -4,-227 477.328,-227 477.328,4 -4,4"/>
<!-- _car -->
<g id="node1" class="node"><title>_car</title>
<polygon fill="none" stroke="black" points="211.506,-174.5 211.506,-222.5 289.334,-222.5 289.334,-174.5 211.506,-174.5"/>
<text text-anchor="middle" x="250.42" y="-212.1" font-family="Bitstream Vera Sans" font-size="8.00"> </text>
<polyline fill="none" stroke="black" points="211.506,-206.5 289.334,-206.5 "/>
<text text-anchor="start" x="219.506" y="-196.1" font-family="Bitstream Vera Sans" font-size="8.00">running : boolean</text>
<text text-anchor="start" x="219.506" y="-188.1" font-family="Bitstream Vera Sans" font-size="8.00">miles : int64</text>
<text text-anchor="start" x="219.506" y="-180.1" font-family="Bitstream Vera Sans" font-size="8.00">running : boolean</text>
</g>
<!-- _car_rotateTires -->
<g id="node2" class="node"><title>_car_rotateTires</title>
<polygon fill="none" stroke="#b64ff7" points="0,-87.5 0,-123.5 82.8398,-123.5 82.8398,-87.5 0,-87.5"/>
<text text-anchor="middle" x="41.4199" y="-112.1" font-family="Bitstream Vera Sans" font-size="8.00">rotateTires (action)</text>
<polyline fill="none" stroke="#b64ff7" points="0,-105.5 82.8398,-105.5 "/>
<text text-anchor="middle" x="41.4199" y="-94.1" font-family="Bitstream Vera Sans" font-size="8.00"> </text>
</g>
<!-- _car&#45;&gt;_car_rotateTires -->
<g id="edge1" class="edge"><title>_car&#45;&gt;_car_rotateTires</title>
<path fill="none" stroke="#b64ff7" stroke-dasharray="5,2" d="M211.23,-185.1C178.71,-174.257 131.617,-157.261 92.4199,-138 86.7808,-135.229 80.9649,-132.013 75.3692,-128.716"/>
<polygon fill="#b64ff7" stroke="#b64ff7" points="77.1785,-125.72 66.8144,-123.521 73.5449,-131.703 77.1785,-125.72"/>
</g>
<!-- _car_replaceTires -->
<g id="node3" class="node"><title>_car_replaceTires</title>
<polygon fill="none" stroke="#b64ff7" points="101.109,-87.5 101.109,-123.5 189.73,-123.5 189.73,-87.5 101.109,-87.5"/>
<text text-anchor="middle" x="145.42" y="-112.1" font-family="Bitstream Vera Sans" font-size="8.00">replaceTires (action)</text>
<polyline fill="none" stroke="#b64ff7" points="101.109,-105.5 189.73,-105.5 "/>
<text text-anchor="middle" x="145.42" y="-94.1" font-family="Bitstream Vera Sans" font-size="8.00"> </text>
</g>
<!-- _car&#45;&gt;_car_replaceTires -->
<g id="edge2" class="edge"><title>_car&#45;&gt;_car_replaceTires</title>
<path fill="none" stroke="#b64ff7" stroke-dasharray="5,2" d="M223.652,-174.301C208.13,-160.849 188.621,-143.941 172.968,-130.375"/>
<polygon fill="#b64ff7" stroke="#b64ff7" points="175.025,-127.526 165.175,-123.621 170.44,-132.816 175.025,-127.526"/>
</g>
<!-- _car_update -->
<g id="node4" class="node"><title>_car_update</title>
<polygon fill="none" stroke="#4fb32e" points="207.287,-77.5 207.287,-133.5 293.553,-133.5 293.553,-77.5 207.287,-77.5"/>
<text text-anchor="middle" x="250.42" y="-123.1" font-family="Bitstream Vera Sans" font-size="8.00">update (notification)</text>
<polyline fill="none" stroke="#4fb32e" points="207.287,-117.5 293.553,-117.5 "/>
<text text-anchor="start" x="215.287" y="-107.1" font-family="Bitstream Vera Sans" font-size="8.00">tire[…] : </text>
<text text-anchor="start" x="215.287" y="-99.1" font-family="Bitstream Vera Sans" font-size="8.00">running : boolean</text>
<text text-anchor="start" x="215.287" y="-91.1" font-family="Bitstream Vera Sans" font-size="8.00">miles : int64</text>
<text text-anchor="start" x="215.287" y="-83.1" font-family="Bitstream Vera Sans" font-size="8.00">running : boolean</text>
</g>
<!-- _car&#45;&gt;_car_update -->
<g id="edge3" class="edge"><title>_car&#45;&gt;_car_update</title>
<path fill="none" stroke="#4fb32e" stroke-dasharray="5,2" d="M250.42,-174.065C250.42,-164.919 250.42,-154.204 250.42,-144.037"/>
<polygon fill="#4fb32e" stroke="#4fb32e" points="253.92,-143.728 250.42,-133.728 246.92,-143.728 253.92,-143.728"/>
</g>
<!-- _tire -->
<g id="node5" class="node"><title>_tire</title>
<polygon fill="none" stroke="black" points="311.184,-73.5 311.184,-137.5 387.656,-137.5 387.656,-73.5 311.184,-73.5"/>
<text text-anchor="middle" x="349.42" y="-127.1" font-family="Bitstream Vera Sans" font-size="8.00">tire</text>
<polyline fill="none" stroke="black" points="311.184,-121.5 387.656,-121.5 "/>
<text text-anchor="start" x="319.184" y="-111.1" font-family="Bitstream Vera Sans" font-size="8.00">pos : int32</text>
<text text-anchor="start" x="319.184" y="-103.1" font-family="Bitstream Vera Sans" font-size="8.00">size : string</text>
<text text-anchor="start" x="319.184" y="-95.1" font-family="Bitstream Vera Sans" font-size="8.00">worn : boolean</text>
<text text-anchor="start" x="319.184" y="-87.1" font-family="Bitstream Vera Sans" font-size="8.00">wear : decimal64</text>
<text text-anchor="start" x="319.184" y="-79.1" font-family="Bitstream Vera Sans" font-size="8.00">flat : boolean</text>
</g>
<!-- _car&#45;&gt;_tire -->
<g id="edge4" class="edge"><title>_car&#45;&gt;_tire</title>
<path fill="none" stroke="black" d="M275.658,-174.301C285.526,-165.231 297.103,-154.59 308.122,-144.461"/>
<polygon fill="black" stroke="black" points="310.639,-146.901 315.633,-137.557 305.902,-141.747 310.639,-146.901"/>
</g>
<!-- _engine -->
<g id="node6" class="node"><title>_engine</title>
<polygon fill="none" stroke="black" points="405.42,-87.5 405.42,-123.5 459.42,-123.5 459.42,-87.5 405.42,-87.5"/>
<text text-anchor="middle" x="431.932" y="-112.1" font-family="Bitstream Vera Sans" font-size="8.00">engine</text>
<polyline fill="none" stroke="black" points="405.42,-105.5 458.443,-105.5 "/>
<text text-anchor="middle" x="431.932" y="-94.1" font-family="Bitstream Vera Sans" font-size="8.00"> </text>
</g>
<!-- _car&#45;&gt;_engine -->
<g id="edge5" class="edge"><title>_car&#45;&gt;_engine</title>
<path fill="none" stroke="black" d="M289.599,-185.503C319.999,-175.276 362.529,-158.915 396.42,-138 400.077,-135.743 403.727,-133.111 407.223,-130.349"/>
<polygon fill="black" stroke="black" points="409.633,-132.895 415.032,-123.779 405.126,-127.539 409.633,-132.895"/>
</g>
<!-- _engine_specs -->
<g id="node7" class="node"><title>_engine_specs</title>
<polygon fill="none" stroke="black" points="391.512,-0.5 391.512,-36.5 473.328,-36.5 473.328,-0.5 391.512,-0.5"/>
<text text-anchor="middle" x="432.42" y="-25.1" font-family="Bitstream Vera Sans" font-size="8.00">specs</text>
<polyline fill="none" stroke="black" points="391.512,-18.5 473.328,-18.5 "/>
<text text-anchor="start" x="399.512" y="-7.1" font-family="Bitstream Vera Sans" font-size="8.00">horsepower : int32</text>
</g>
<!-- _engine&#45;&gt;_engine_specs -->
<g id="edge6" class="edge"><title>_engine&#45;&gt;_engine_specs</title>
<path fill="none" stroke="black" d="M432.42,-87.299C432.42,-75.6626 432.42,-60.0479 432.42,-46.7368"/>
<polygon fill="black" stroke="black" points="435.92,-46.6754 432.42,-36.6754 428.92,-46.6755 435.92,-46.6754"/>
</g>
</g>
</svg>
