<?xml version="1.0" encoding="UTF-8" standalone="no"?>
<!DOCTYPE svg PUBLIC "-//W3C//DTD SVG 1.1//EN"
 "http://www.w3.org/Graphics/SVG/1.1/DTD/svg11.dtd">
<!-- Generated by graphviz version 2.38.0 (20140413.2041)
 -->
<!-- Title: G Pages: 1 -->
<svg width="116pt" height="158pt"
 viewBox="0.00 0.00 115.61 158.00" xmlns="http://www.w3.org/2000/svg" xmlns:xlink="http://www.w3.org/1999/xlink">
<g id="graph0" class="graph" transform="scale(1 1) rotate(0) translate(4 154)">
<title>G</title>
<polygon fill="white" stroke="none" points="-4,4 -4,-154 111.605,-154 111.605,4 -4,4"/>
<!-- garage -->
<g id="node1" class="node"><title>garage</title>
<polygon fill="none" stroke="black" points="2.66992,-77.5 2.66992,-149.5 104.936,-149.5 104.936,-77.5 2.66992,-77.5"/>
<text text-anchor="middle" x="53.8027" y="-139.1" font-family="Bitstream Vera Sans" font-size="8.00"> </text>
<polyline fill="none" stroke="black" points="2.66992,-133.5 104.936,-133.5 "/>
<text text-anchor="start" x="10.6699" y="-123.1" font-family="Bitstream Vera Sans" font-size="8.00">tireRotateMiles : int64</text>
<text text-anchor="start" x="10.6699" y="-115.1" font-family="Bitstream Vera Sans" font-size="8.00">pollTimeMs : int32</text>
<text text-anchor="start" x="10.6699" y="-107.1" font-family="Bitstream Vera Sans" font-size="8.00">carCount : int32</text>
<text text-anchor="start" x="10.6699" y="-99.1" font-family="Bitstream Vera Sans" font-size="8.00">carsServiced : int32</text>
<text text-anchor="start" x="10.6699" y="-91.1" font-family="Bitstream Vera Sans" font-size="8.00">tireReplacements : int32</text>
<text text-anchor="start" x="10.6699" y="-83.1" font-family="Bitstream Vera Sans" font-size="8.00">tireRotations : int32</text>
</g>
<!-- garage_maintenance -->
<g id="node2" class="node"><title>garage_maintenance</title>
<polygon fill="none" stroke="#4fb32e" points="0,-0.5 0,-40.5 107.605,-40.5 107.605,-0.5 0,-0.5"/>
<text text-anchor="middle" x="53.8027" y="-30.1" font-family="Bitstream Vera Sans" font-size="8.00">maintenance (notification)</text>
<polyline fill="none" stroke="#4fb32e" points="0,-24.5 107.605,-24.5 "/>
<text text-anchor="start" x="8" y="-14.1" font-family="Bitstream Vera Sans" font-size="8.00">car : string</text>
<text text-anchor="start" x="8" y="-6.1" font-family="Bitstream Vera Sans" font-size="8.00">work : enumeration</text>
</g>
<!-- garage&#45;&gt;garage_maintenance -->
<g id="edge1" class="edge"><title>garage&#45;&gt;garage_maintenance</title>
<path fill="none" stroke="#4fb32e" stroke-dasharray="5,2" d="M53.8027,-77.317C53.8027,-68.5254 53.8027,-59.1914 53.8027,-50.7236"/>
<polygon fill="#4fb32e" stroke="#4fb32e" points="57.3028,-50.567 53.8027,-40.5671 50.3028,-50.5671 57.3028,-50.567"/>
</g>
</g>
</svg>
