<?xml version="1.0" encoding="UTF-8" standalone="no"?>
<!DOCTYPE svg PUBLIC "-//W3C//DTD SVG 1.1//EN"
 "http://www.w3.org/Graphics/SVG/1.1/DTD/svg11.dtd">
<!-- Generated by graphviz version 2.40.1 (20161225.0304)
 -->
<!-- Title: G Pages: 1 -->
<svg width="313pt" height="336pt"
 viewBox="0.00 0.00 312.81 336.00" xmlns="http://www.w3.org/2000/svg" xmlns:xlink="http://www.w3.org/1999/xlink">
<g id="graph0" class="graph" transform="scale(1 1) rotate(0) translate(4 332)">
<title>G</title>
<polygon fill="#ffffff" stroke="transparent" points="-4,4 -4,-332 308.8145,-332 308.8145,4 -4,4"/>
<!-- ietf_yang_library -->
<g id="node1" class="node">
<title>ietf_yang_library</title>
<polygon fill="none" stroke="#000000" points="55.25,-291.5 55.25,-327.5 109.25,-327.5 109.25,-291.5 55.25,-291.5"/>
<text text-anchor="middle" x="81.8613" y="-316.1" font-family="Bitstream Vera Sans" font-size="8.00" fill="#000000"> </text>
<polyline fill="none" stroke="#000000" points="55.25,-309.5 108.4727,-309.5 "/>
<text text-anchor="middle" x="81.8613" y="-298.1" font-family="Bitstream Vera Sans" font-size="8.00" fill="#000000"> </text>
</g>
<!-- ietf_yang_library_yang_library_change -->
<g id="node2" class="node">
<title>ietf_yang_library_yang_library_change</title>
<polygon fill="none" stroke="#4fb32e" points="0,-210.5 0,-246.5 132.5,-246.5 132.5,-210.5 0,-210.5"/>
<text text-anchor="middle" x="66.25" y="-235.1" font-family="Bitstream Vera Sans" font-size="8.00" fill="#000000">yang&#45;library&#45;change (notification)</text>
<polyline fill="none" stroke="#4fb32e" points="0,-228.5 132.5,-228.5 "/>
<text text-anchor="start" x="8" y="-217.1" font-family="Bitstream Vera Sans" font-size="8.00" fill="#000000">module&#45;set&#45;id : leafref</text>
</g>
<!-- ietf_yang_library&#45;&gt;ietf_yang_library_yang_library_change -->
<g id="edge1" class="edge">
<title>ietf_yang_library&#45;&gt;ietf_yang_library_yang_library_change</title>
<path fill="none" stroke="#4fb32e" stroke-dasharray="5,2" d="M78.6194,-291.1198C76.6004,-280.8991 74.046,-267.9672 71.7833,-256.5125"/>
<polygon fill="#4fb32e" stroke="#4fb32e" points="75.1828,-255.6606 69.8112,-246.5284 68.3155,-257.0171 75.1828,-255.6606"/>
</g>
<!-- ietf_yang_library_modules_state -->
<g id="node3" class="node">
<title>ietf_yang_library_modules_state</title>
<polygon fill="none" stroke="#000000" points="150.0156,-210.5 150.0156,-246.5 266.4844,-246.5 266.4844,-210.5 150.0156,-210.5"/>
<text text-anchor="middle" x="208.25" y="-235.1" font-family="Bitstream Vera Sans" font-size="8.00" fill="#000000">modules&#45;state</text>
<polyline fill="none" stroke="#000000" points="150.0156,-228.5 266.4844,-228.5 "/>
<text text-anchor="start" x="158.0156" y="-217.1" font-family="Bitstream Vera Sans" font-size="8.00" fill="#000000">module&#45;set&#45;id : string (r/o,m)</text>
</g>
<!-- ietf_yang_library&#45;&gt;ietf_yang_library_modules_state -->
<g id="edge2" class="edge">
<title>ietf_yang_library&#45;&gt;ietf_yang_library_modules_state</title>
<path fill="none" stroke="#000000" d="M109.2802,-292.1235C127.421,-280.4615 151.5459,-264.9526 171.4352,-252.1667"/>
<polygon fill="#000000" stroke="#000000" points="173.4344,-255.0423 179.9535,-246.6906 169.649,-249.1541 173.4344,-255.0423"/>
<text text-anchor="middle" x="157.6934" y="-266.6" font-family="Bitstream Vera Sans" font-size="8.00" fill="#000000"> (r/o)</text>
</g>
<!-- ietf_yang_library_modules_state_module -->
<g id="node4" class="node">
<title>ietf_yang_library_modules_state_module</title>
<polygon fill="none" stroke="#000000" points="129.7773,-93.5 129.7773,-165.5 286.7227,-165.5 286.7227,-93.5 129.7773,-93.5"/>
<text text-anchor="middle" x="208.25" y="-155.1" font-family="Bitstream Vera Sans" font-size="8.00" fill="#000000">module[…]</text>
<polyline fill="none" stroke="#000000" points="129.7773,-149.5 286.7227,-149.5 "/>
<text text-anchor="start" x="137.7773" y="-139.1" font-family="Bitstream Vera Sans" font-size="8.00" fill="#000000">name : string (r/o)</text>
<text text-anchor="start" x="137.7773" y="-131.1" font-family="Bitstream Vera Sans" font-size="8.00" fill="#000000">revision : string (r/o)</text>
<text text-anchor="start" x="137.7773" y="-123.1" font-family="Bitstream Vera Sans" font-size="8.00" fill="#000000">schema : string (r/o)</text>
<text text-anchor="start" x="137.7773" y="-115.1" font-family="Bitstream Vera Sans" font-size="8.00" fill="#000000">namespace : string (r/o,m)</text>
<text text-anchor="start" x="137.7773" y="-107.1" font-family="Bitstream Vera Sans" font-size="8.00" fill="#000000">feature : string[] (r/o)</text>
<text text-anchor="start" x="137.7773" y="-99.1" font-family="Bitstream Vera Sans" font-size="8.00" fill="#000000">conformance&#45;type : enumeration (r/o,m)</text>
</g>
<!-- ietf_yang_library_modules_state&#45;&gt;ietf_yang_library_modules_state_module -->
<g id="edge3" class="edge">
<title>ietf_yang_library_modules_state&#45;&gt;ietf_yang_library_modules_state_module</title>
<path fill="none" stroke="#000000" d="M208.25,-210.3419C208.25,-200.5732 208.25,-188.0379 208.25,-175.7686"/>
<polygon fill="#000000" stroke="#000000" points="211.7501,-175.5914 208.25,-165.5914 204.7501,-175.5914 211.7501,-175.5914"/>
<text text-anchor="middle" x="216.6934" y="-185.6" font-family="Bitstream Vera Sans" font-size="8.00" fill="#000000"> (r/o)</text>
</g>
<!-- ietf_yang_library_modules_state_module_deviation -->
<g id="node5" class="node">
<title>ietf_yang_library_modules_state_module_deviation</title>
<polygon fill="none" stroke="#000000" points="112.9082,-4.5 112.9082,-44.5 199.5918,-44.5 199.5918,-4.5 112.9082,-4.5"/>
<text text-anchor="middle" x="156.25" y="-34.1" font-family="Bitstream Vera Sans" font-size="8.00" fill="#000000">deviation[…]</text>
<polyline fill="none" stroke="#000000" points="112.9082,-28.5 199.5918,-28.5 "/>
<text text-anchor="start" x="120.9082" y="-18.1" font-family="Bitstream Vera Sans" font-size="8.00" fill="#000000">name : string (r/o)</text>
<text text-anchor="start" x="120.9082" y="-10.1" font-family="Bitstream Vera Sans" font-size="8.00" fill="#000000">revision : string (r/o)</text>
</g>
<!-- ietf_yang_library_modules_state_module&#45;&gt;ietf_yang_library_modules_state_module_deviation -->
<g id="edge4" class="edge">
<title>ietf_yang_library_modules_state_module&#45;&gt;ietf_yang_library_modules_state_module_deviation</title>
<path fill="none" stroke="#000000" d="M190.3545,-93.365C184.0028,-80.5394 176.9341,-66.266 170.8866,-54.0546"/>
<polygon fill="#000000" stroke="#000000" points="173.8631,-52.1783 166.2886,-44.7703 167.5902,-55.2849 173.8631,-52.1783"/>
<text text-anchor="middle" x="189.6934" y="-68.6" font-family="Bitstream Vera Sans" font-size="8.00" fill="#000000"> (r/o)</text>
</g>
<!-- ietf_yang_library_modules_state_module_submodule -->
<g id="node6" class="node">
<title>ietf_yang_library_modules_state_module_submodule</title>
<polygon fill="none" stroke="#000000" points="217.6855,-.5 217.6855,-48.5 304.8145,-48.5 304.8145,-.5 217.6855,-.5"/>
<text text-anchor="middle" x="261.25" y="-38.1" font-family="Bitstream Vera Sans" font-size="8.00" fill="#000000">submodule[…]</text>
<polyline fill="none" stroke="#000000" points="217.6855,-32.5 304.8145,-32.5 "/>
<text text-anchor="start" x="225.6855" y="-22.1" font-family="Bitstream Vera Sans" font-size="8.00" fill="#000000">name : string (r/o)</text>
<text text-anchor="start" x="225.6855" y="-14.1" font-family="Bitstream Vera Sans" font-size="8.00" fill="#000000">revision : string (r/o)</text>
<text text-anchor="start" x="225.6855" y="-6.1" font-family="Bitstream Vera Sans" font-size="8.00" fill="#000000">schema : string (r/o)</text>
</g>
<!-- ietf_yang_library_modules_state_module&#45;&gt;ietf_yang_library_modules_state_module_submodule -->
<g id="edge5" class="edge">
<title>ietf_yang_library_modules_state_module&#45;&gt;ietf_yang_library_modules_state_module_submodule</title>
<path fill="none" stroke="#000000" d="M226.4896,-93.365C232.2911,-81.8714 238.6795,-69.2151 244.3799,-57.9219"/>
<polygon fill="#000000" stroke="#000000" points="247.5967,-59.3161 248.9784,-48.8117 241.3477,-56.1618 247.5967,-59.3161"/>
<text text-anchor="middle" x="247.6934" y="-68.6" font-family="Bitstream Vera Sans" font-size="8.00" fill="#000000"> (r/o)</text>
</g>
</g>
</svg>
