<?xml version="1.0" encoding="UTF-8" standalone="no"?>
<!DOCTYPE svg PUBLIC "-//W3C//DTD SVG 1.1//EN"
 "http://www.w3.org/Graphics/SVG/1.1/DTD/svg11.dtd">
<!-- Generated by graphviz version 2.40.1 (20161225.0304)
 -->
<!-- Title: G Pages: 1 -->
<svg width="422pt" height="328pt"
 viewBox="0.00 0.00 421.59 328.00" xmlns="http://www.w3.org/2000/svg" xmlns:xlink="http://www.w3.org/1999/xlink">
<g id="graph0" class="graph" transform="scale(1 1) rotate(0) translate(4 324)">
<title>G</title>
<polygon fill="#ffffff" stroke="transparent" points="-4,4 -4,-324 417.5859,-324 417.5859,4 -4,4"/>
<!-- restconf -->
<g id="node1" class="node">
<title>restconf</title>
<polygon fill="none" stroke="#000000" points="105.457,-263.5 105.457,-319.5 239,-319.5 239,-263.5 105.457,-263.5"/>
<text text-anchor="middle" x="172.2285" y="-309.1" font-family="Bitstream Vera Sans" font-size="8.00" fill="#000000"> </text>
<polyline fill="none" stroke="#000000" points="105.457,-303.5 239,-303.5 "/>
<text text-anchor="start" x="113.457" y="-293.1" font-family="Bitstream Vera Sans" font-size="8.00" fill="#000000">notifyKeepaliveTimeoutMs : int32</text>
<text text-anchor="start" x="113.457" y="-285.1" font-family="Bitstream Vera Sans" font-size="8.00" fill="#000000">debug : boolean</text>
<text text-anchor="start" x="113.457" y="-277.1" font-family="Bitstream Vera Sans" font-size="8.00" fill="#000000">streamCount : int32 (r/o)</text>
<text text-anchor="start" x="113.457" y="-269.1" font-family="Bitstream Vera Sans" font-size="8.00" fill="#000000">subscriptionCount : int32 (r/o)</text>
</g>
<!-- restconf_web -->
<g id="node2" class="node">
<title>restconf_web</title>
<polygon fill="none" stroke="#000000" points="73.4727,-166.5 73.4727,-214.5 158.9844,-214.5 158.9844,-166.5 73.4727,-166.5"/>
<text text-anchor="middle" x="116.2285" y="-204.1" font-family="Bitstream Vera Sans" font-size="8.00" fill="#000000">web</text>
<polyline fill="none" stroke="#000000" points="73.4727,-198.5 158.9844,-198.5 "/>
<text text-anchor="start" x="81.4727" y="-188.1" font-family="Bitstream Vera Sans" font-size="8.00" fill="#000000">port : string</text>
<text text-anchor="start" x="81.4727" y="-180.1" font-family="Bitstream Vera Sans" font-size="8.00" fill="#000000">readTimeout : int32</text>
<text text-anchor="start" x="81.4727" y="-172.1" font-family="Bitstream Vera Sans" font-size="8.00" fill="#000000">writeTimeout : int32</text>
</g>
<!-- restconf&#45;&gt;restconf_web -->
<g id="edge4" class="edge">
<title>restconf&#45;&gt;restconf_web</title>
<path fill="none" stroke="#000000" d="M156.6294,-263.3659C149.8063,-251.06 141.7521,-236.5336 134.6375,-223.702"/>
<polygon fill="#000000" stroke="#000000" points="137.5643,-221.7626 129.6542,-214.7141 131.4423,-225.157 137.5643,-221.7626"/>
</g>
<!-- restconf_callHome -->
<g id="node6" class="node">
<title>restconf_callHome</title>
<polygon fill="none" stroke="#000000" points="196.4277,-154.5 196.4277,-226.5 300.0293,-226.5 300.0293,-154.5 196.4277,-154.5"/>
<text text-anchor="middle" x="248.2285" y="-216.1" font-family="Bitstream Vera Sans" font-size="8.00" fill="#000000">callHome</text>
<polyline fill="none" stroke="#000000" points="196.4277,-210.5 300.0293,-210.5 "/>
<text text-anchor="start" x="204.4277" y="-200.1" font-family="Bitstream Vera Sans" font-size="8.00" fill="#000000">registered : boolean (r/o)</text>
<text text-anchor="start" x="204.4277" y="-192.1" font-family="Bitstream Vera Sans" font-size="8.00" fill="#000000">deviceId : string</text>
<text text-anchor="start" x="204.4277" y="-184.1" font-family="Bitstream Vera Sans" font-size="8.00" fill="#000000">address : string</text>
<text text-anchor="start" x="204.4277" y="-176.1" font-family="Bitstream Vera Sans" font-size="8.00" fill="#000000">endpoint : string</text>
<text text-anchor="start" x="204.4277" y="-168.1" font-family="Bitstream Vera Sans" font-size="8.00" fill="#000000">localAddress : string</text>
<text text-anchor="start" x="204.4277" y="-160.1" font-family="Bitstream Vera Sans" font-size="8.00" fill="#000000">retryRateMs : int32</text>
</g>
<!-- restconf&#45;&gt;restconf_callHome -->
<g id="edge5" class="edge">
<title>restconf&#45;&gt;restconf_callHome</title>
<path fill="none" stroke="#000000" d="M193.3988,-263.3659C200.0556,-254.5193 207.5759,-244.5251 214.8652,-234.838"/>
<polygon fill="#000000" stroke="#000000" points="217.6939,-236.9 220.9099,-226.805 212.1005,-232.6911 217.6939,-236.9"/>
</g>
<!-- restconf_web_tls -->
<g id="node3" class="node">
<title>restconf_web_tls</title>
<polygon fill="none" stroke="#000000" points="34.3301,-79.5 34.3301,-115.5 120.127,-115.5 120.127,-79.5 34.3301,-79.5"/>
<text text-anchor="middle" x="77.2285" y="-104.1" font-family="Bitstream Vera Sans" font-size="8.00" fill="#000000">tls</text>
<polyline fill="none" stroke="#000000" points="34.3301,-97.5 120.127,-97.5 "/>
<text text-anchor="start" x="42.3301" y="-86.1" font-family="Bitstream Vera Sans" font-size="8.00" fill="#000000">serverName : string</text>
</g>
<!-- restconf_web&#45;&gt;restconf_web_tls -->
<g id="edge6" class="edge">
<title>restconf_web&#45;&gt;restconf_web_tls</title>
<path fill="none" stroke="#000000" d="M105.9817,-166.0653C100.6944,-153.457 94.2254,-138.0311 88.7634,-125.0062"/>
<polygon fill="#000000" stroke="#000000" points="91.914,-123.4687 84.819,-115.6003 85.4586,-126.1758 91.914,-123.4687"/>
</g>
<!-- restconf_web_tls_cert -->
<g id="node4" class="node">
<title>restconf_web_tls_cert</title>
<polygon fill="none" stroke="#000000" points="0,-.5 0,-40.5 68.457,-40.5 68.457,-.5 0,-.5"/>
<text text-anchor="middle" x="34.2285" y="-30.1" font-family="Bitstream Vera Sans" font-size="8.00" fill="#000000">cert</text>
<polyline fill="none" stroke="#000000" points="0,-24.5 68.457,-24.5 "/>
<text text-anchor="start" x="8" y="-14.1" font-family="Bitstream Vera Sans" font-size="8.00" fill="#000000">certFile : string</text>
<text text-anchor="start" x="8" y="-6.1" font-family="Bitstream Vera Sans" font-size="8.00" fill="#000000">keyFile : string</text>
</g>
<!-- restconf_web_tls&#45;&gt;restconf_web_tls_cert -->
<g id="edge7" class="edge">
<title>restconf_web_tls&#45;&gt;restconf_web_tls_cert</title>
<path fill="none" stroke="#000000" d="M67.0381,-79.2521C62.0563,-70.3312 55.942,-59.3822 50.3472,-49.3637"/>
<polygon fill="#000000" stroke="#000000" points="53.3342,-47.5338 45.4026,-40.5095 47.2225,-50.9468 53.3342,-47.5338"/>
</g>
<!-- restconf_web_tls_ca -->
<g id="node5" class="node">
<title>restconf_web_tls_ca</title>
<polygon fill="none" stroke="#000000" points="86,-2.5 86,-38.5 154.457,-38.5 154.457,-2.5 86,-2.5"/>
<text text-anchor="middle" x="120.2285" y="-27.1" font-family="Bitstream Vera Sans" font-size="8.00" fill="#000000">ca</text>
<polyline fill="none" stroke="#000000" points="86,-20.5 154.457,-20.5 "/>
<text text-anchor="start" x="94" y="-9.1" font-family="Bitstream Vera Sans" font-size="8.00" fill="#000000">certFile : string</text>
</g>
<!-- restconf_web_tls&#45;&gt;restconf_web_tls_ca -->
<g id="edge8" class="edge">
<title>restconf_web_tls&#45;&gt;restconf_web_tls_ca</title>
<path fill="none" stroke="#000000" d="M87.4189,-79.2521C92.7205,-69.7586 99.3046,-57.9684 105.1803,-47.4469"/>
<polygon fill="#000000" stroke="#000000" points="108.2913,-49.0543 110.1113,-38.6169 102.1797,-45.6413 108.2913,-49.0543"/>
</g>
<!-- restconf_callHome_register -->
<g id="node7" class="node">
<title>restconf_callHome_register</title>
<polygon fill="none" stroke="#b64ff7" points="138.4414,-79.5 138.4414,-115.5 210.0156,-115.5 210.0156,-79.5 138.4414,-79.5"/>
<text text-anchor="middle" x="174.2285" y="-104.1" font-family="Bitstream Vera Sans" font-size="8.00" fill="#000000">register (action)</text>
<polyline fill="none" stroke="#b64ff7" points="138.4414,-97.5 210.0156,-97.5 "/>
<text text-anchor="middle" x="174.2285" y="-86.1" font-family="Bitstream Vera Sans" font-size="8.00" fill="#000000"> </text>
</g>
<!-- restconf_callHome&#45;&gt;restconf_callHome_register -->
<g id="edge1" class="edge">
<title>restconf_callHome&#45;&gt;restconf_callHome_register</title>
<path fill="none" stroke="#b64ff7" stroke-dasharray="5,2" d="M219.4063,-154.2775C211.2455,-144.0214 202.526,-133.0631 194.9456,-123.5363"/>
<polygon fill="#b64ff7" stroke="#b64ff7" points="197.5851,-121.2323 188.6199,-115.5865 192.1076,-125.5908 197.5851,-121.2323"/>
</g>
<!-- restconf_callHome_unregister -->
<g id="node8" class="node">
<title>restconf_callHome_unregister</title>
<polygon fill="none" stroke="#b64ff7" points="227.9922,-79.5 227.9922,-115.5 308.4648,-115.5 308.4648,-79.5 227.9922,-79.5"/>
<text text-anchor="middle" x="268.2285" y="-104.1" font-family="Bitstream Vera Sans" font-size="8.00" fill="#000000">unregister (action)</text>
<polyline fill="none" stroke="#b64ff7" points="227.9922,-97.5 308.4648,-97.5 "/>
<text text-anchor="middle" x="268.2285" y="-86.1" font-family="Bitstream Vera Sans" font-size="8.00" fill="#000000"> </text>
</g>
<!-- restconf_callHome&#45;&gt;restconf_callHome_unregister -->
<g id="edge2" class="edge">
<title>restconf_callHome&#45;&gt;restconf_callHome_unregister</title>
<path fill="none" stroke="#b64ff7" stroke-dasharray="5,2" d="M256.0183,-154.2775C258.068,-144.7465 260.248,-134.6092 262.1903,-125.5779"/>
<polygon fill="#b64ff7" stroke="#b64ff7" points="265.6582,-126.0988 264.339,-115.5865 258.8146,-124.6271 265.6582,-126.0988"/>
</g>
<!-- restconf_callHome_update -->
<g id="node9" class="node">
<title>restconf_callHome_update</title>
<polygon fill="none" stroke="#4fb32e" points="326.8711,-77.5 326.8711,-117.5 413.5859,-117.5 413.5859,-77.5 326.8711,-77.5"/>
<text text-anchor="middle" x="370.2285" y="-107.1" font-family="Bitstream Vera Sans" font-size="8.00" fill="#000000">update (notification)</text>
<polyline fill="none" stroke="#4fb32e" points="326.8711,-101.5 413.5859,-101.5 "/>
<text text-anchor="start" x="334.8711" y="-91.1" font-family="Bitstream Vera Sans" font-size="8.00" fill="#000000">registered : boolean</text>
<text text-anchor="start" x="334.8711" y="-83.1" font-family="Bitstream Vera Sans" font-size="8.00" fill="#000000">err : string</text>
</g>
<!-- restconf_callHome&#45;&gt;restconf_callHome_update -->
<g id="edge3" class="edge">
<title>restconf_callHome&#45;&gt;restconf_callHome_update</title>
<path fill="none" stroke="#4fb32e" stroke-dasharray="5,2" d="M295.7462,-154.2775C309.0102,-144.1664 323.1695,-133.3729 335.542,-123.9413"/>
<polygon fill="#4fb32e" stroke="#4fb32e" points="337.9582,-126.5005 343.7892,-117.6546 333.7145,-120.9335 337.9582,-126.5005"/>
</g>
</g>
</svg>
